<?xml version="1.0" standalone="no"?>
<!DOCTYPE svg PUBLIC "-//W3C//DTD SVG 1.1//EN" "http://www.w3.org/Graphics/SVG/1.1/DTD/svg11.dtd" >
<svg xmlns="http://www.w3.org/2000/svg" width="100%" height="100%">
<metadata>
Created by FontXChange 20110222 at Sun Feb  2 12:21:22 2014
 By Jean-Maxime Brais
Copyright (C) 2000, 2007 Hoefler &#38; Frere-Jones. http://www.typography.com
</metadata>
<defs>
<font id="Gotham-ExtraLightItalic" horiz-adv-x="500" >
  <font-face 
    font-family="Gotham"
    font-weight="275"
    font-style="italic"
    font-stretch="normal"
    units-per-em="1000"
    panose-1="2 0 6 3 4 0 0 2 0 4"
    ascent="800"
    descent="-200"
    x-height="504"
    cap-height="700"
    bbox="-123 -202 1213 975"
    underline-thickness="20"
    underline-position="-113"
    slope="-12"
    stemh="30"
    stemv="34"
    unicode-range="U+0020-FB04"
  />
<missing-glyph 
d="M0 -200v1000h500v-1000h-500zM71 750l179 -390l179 390h-358zM50 -76l172 376l-172 376v-752zM450 676l-172 -376l172 -376v752zM250 240l-179 -390h358z" />
    <glyph glyph-name="f_f" unicode="ff" horiz-adv-x="680" 
d="M389 0l128 475h-77l8 29h77l22 82c29 108 90 144 158 144c36 0 67 -8 93 -23l-9 -29c-27 14 -55 22 -85 22c-53 0 -102 -28 -127 -120l-20 -76h183l-8 -29h-183l-127 -475h-33zM50 0l127 475h-77l8 29h77l22 82c29 109 90 144 158 144c36 0 67 -8 93 -23l-9 -29
c-26 14 -54 22 -85 22c-53 0 -102 -28 -126 -120l-21 -76h183l-7 -29h-184l-127 -475h-32z" />
    <glyph glyph-name="fi" unicode="fi" horiz-adv-x="572" 
d="M538 643l17 61h43l-17 -61h-43zM50 0l127 475h-77l8 29h77l22 82c29 109 90 144 158 144c36 0 67 -8 93 -23l-9 -29c-26 14 -54 22 -85 22c-53 0 -102 -28 -126 -120l-21 -76h183l-7 -29h-184l-127 -475h-32zM371 0l135 504h33l-136 -504h-32z" />
    <glyph glyph-name="fl" unicode="fl" horiz-adv-x="571" 
d="M371 0l196 730h32l-196 -730h-32zM50 0l127 475h-77l8 29h77l22 82c29 109 90 144 158 144c36 0 67 -8 93 -23l-9 -29c-26 14 -54 22 -85 22c-53 0 -102 -28 -126 -120l-21 -76h183l-7 -29h-184l-127 -475h-32z" />
    <glyph glyph-name="f_f_i" unicode="ffi" horiz-adv-x="912" 
d="M878 643l17 61h43l-17 -61h-43zM389 0l128 475h-77l8 29h77l22 82c29 108 90 144 158 144c36 0 67 -8 93 -23l-9 -29c-27 14 -55 22 -85 22c-53 0 -102 -28 -127 -120l-20 -76h183l-8 -29h-183l-127 -475h-33zM50 0l127 475h-77l8 29h77l22 82c29 109 90 144 158 144
c36 0 67 -8 93 -23l-9 -29c-26 14 -54 22 -85 22c-53 0 -102 -28 -126 -120l-21 -76h183l-7 -29h-184l-127 -475h-32zM711 0l135 504h32l-135 -504h-32z" />
    <glyph glyph-name="f_f_l" unicode="ffl" horiz-adv-x="911" 
d="M711 0l196 730h32l-196 -730h-32zM389 0l128 475h-77l8 29h77l22 82c29 108 90 144 158 144c36 0 67 -8 93 -23l-9 -29c-27 14 -55 22 -85 22c-53 0 -102 -28 -127 -120l-20 -76h183l-8 -29h-183l-127 -475h-33zM50 0l127 475h-77l8 29h77l22 82c29 109 90 144 158 144
c36 0 67 -8 93 -23l-9 -29c-26 14 -54 22 -85 22c-53 0 -102 -28 -126 -120l-21 -76h183l-7 -29h-184l-127 -475h-32z" />
    <glyph glyph-name=".notdef" 
d="M0 -200v1000h500v-1000h-500zM71 750l179 -390l179 390h-358zM50 -76l172 376l-172 376v-752zM450 676l-172 -376l172 -376v752zM250 240l-179 -390h358z" />
    <glyph glyph-name="A" unicode="A" horiz-adv-x="764" 
d="M-29 0l522 705h31l142 -705h-34l-40 204h-432l-150 -204h-39zM183 235h403l-85 430z" />
    <glyph glyph-name="B" unicode="B" horiz-adv-x="722" 
d="M37 0l188 700h257c121 0 208 -57 208 -157c0 -113 -94 -176 -193 -190c84 -19 142 -66 142 -147c0 -115 -100 -206 -289 -206h-313zM170 369h237c154 0 248 66 248 171c0 84 -71 129 -178 129h-227zM79 31h274c164 0 252 74 252 176c0 86 -84 131 -199 131h-245z" />
    <glyph glyph-name="C" unicode="C" horiz-adv-x="731" 
d="M373 -12c-152 0 -280 106 -280 282c0 229 184 442 417 442c120 0 210 -61 253 -152l-30 -14c-41 80 -114 135 -224 135c-215 0 -382 -199 -382 -410c0 -157 109 -252 249 -252c113 0 191 47 254 111l22 -21c-64 -66 -152 -121 -279 -121z" />
    <glyph glyph-name="D" unicode="D" horiz-adv-x="766" 
d="M37 0l188 700h146c114 0 215 -32 278 -95c49 -49 77 -114 77 -199c0 -107 -40 -203 -110 -273c-84 -84 -211 -133 -356 -133h-223zM79 31h186c134 0 247 44 326 123c64 64 100 152 100 250c0 77 -25 136 -68 179c-56 57 -145 86 -249 86h-124z" />
    <glyph glyph-name="E" unicode="E" horiz-adv-x="656" 
d="M37 0l188 700h490l-9 -31h-456l-81 -301h413l-8 -31h-413l-82 -306h461l-8 -31h-495z" />
    <glyph glyph-name="F" unicode="F" horiz-adv-x="640" 
d="M37 0l188 700h487l-9 -31h-453l-83 -310h410l-9 -31h-409l-88 -328h-34z" />
    <glyph glyph-name="G" unicode="G" horiz-adv-x="782" 
d="M392 -12c-178 0 -296 121 -296 293c0 222 181 431 424 431c130 0 207 -58 252 -126l-27 -18c-43 63 -107 113 -227 113c-221 0 -387 -193 -387 -399c0 -156 102 -264 263 -264c85 0 161 28 217 64l69 241h-241l8 33h275l-83 -293c-71 -46 -156 -75 -247 -75z" />
    <glyph glyph-name="H" unicode="H" horiz-adv-x="754" 
d="M37 0l188 700h34l-90 -332h477l90 332h34l-188 -700h-34l90 337h-477l-90 -337h-34z" />
    <glyph glyph-name="I" unicode="I" horiz-adv-x="256" 
d="M43 0l188 700h34l-188 -700h-34z" />
    <glyph glyph-name="J" unicode="J" horiz-adv-x="530" 
d="M188 -11c-110 0 -171 72 -193 158l30 10c23 -79 74 -137 162 -137c53 0 96 18 132 54s60 86 79 157l126 469h34l-128 -476c-20 -76 -47 -130 -87 -170c-43 -43 -96 -65 -155 -65z" />
    <glyph glyph-name="K" unicode="K" horiz-adv-x="709" 
d="M37 0l188 700h34l-125 -466l589 466h51l-386 -303l209 -397h-38l-198 377l-240 -189l-50 -188h-34z" />
    <glyph glyph-name="L" unicode="L" horiz-adv-x="590" 
d="M37 0l188 700h34l-180 -669h422l-8 -31h-456z" />
    <glyph glyph-name="M" unicode="M" horiz-adv-x="864" 
d="M37 0l188 700h28l181 -425l409 425h36l-188 -700h-34l172 641l-405 -420h-2l-180 420l-172 -641h-33z" />
    <glyph glyph-name="N" unicode="N" horiz-adv-x="784" 
d="M37 0l188 700h31l337 -647l174 647h33l-188 -700h-28l-340 652l-175 -652h-32z" />
    <glyph glyph-name="O" unicode="O" horiz-adv-x="841" 
d="M397 -12c-177 0 -300 133 -300 302c0 218 177 422 399 422c178 0 301 -133 301 -302c0 -218 -178 -422 -400 -422zM398 18c205 0 364 190 364 391c0 153 -107 272 -267 272c-205 0 -364 -189 -364 -391c0 -152 108 -272 267 -272z" />
    <glyph glyph-name="P" unicode="P" horiz-adv-x="666" 
d="M37 0l188 700h215c88 0 152 -21 194 -63c31 -30 47 -73 47 -124c0 -149 -127 -243 -336 -243h-202l-72 -270h-34zM151 301h196c193 0 300 86 300 210c0 43 -12 77 -39 104c-35 35 -91 54 -169 54h-189z" />
    <glyph glyph-name="Q" unicode="Q" horiz-adv-x="841" 
d="M696 -15l-72 81c-64 -49 -142 -78 -227 -78c-177 0 -300 133 -300 302c0 218 177 422 399 422c178 0 301 -133 301 -302c0 -124 -58 -244 -149 -324l72 -80zM398 18c77 0 148 27 206 71l-125 139l25 21l123 -140c84 74 135 185 135 300c0 153 -107 272 -267 272
c-205 0 -364 -189 -364 -391c0 -152 108 -272 267 -272z" />
    <glyph glyph-name="Q.alt" horiz-adv-x="841" 
d="M696 -15l-72 81c-64 -49 -142 -78 -227 -78c-177 0 -300 133 -300 302c0 218 177 422 399 422c178 0 301 -133 301 -302c0 -124 -58 -244 -149 -324l72 -80zM398 18c77 0 148 27 206 71l-125 139l25 21l123 -140c84 74 135 185 135 300c0 153 -107 272 -267 272
c-205 0 -364 -189 -364 -391c0 -152 108 -272 267 -272z" />
    <glyph glyph-name="R" unicode="R" horiz-adv-x="720" 
d="M37 0l188 700h250c146 0 230 -64 230 -175c0 -55 -20 -106 -59 -144c-45 -45 -118 -75 -214 -79l157 -302h-39l-154 299h-245l-80 -299h-34zM159 330h242c106 0 179 29 221 71c33 33 49 76 49 121c0 93 -69 147 -198 147h-223z" />
    <glyph glyph-name="S" unicode="S" horiz-adv-x="639" 
d="M301 -10c-118 0 -219 51 -279 132l26 19c59 -77 148 -120 257 -120c134 0 214 80 214 164c0 82 -71 118 -173 158c-114 44 -192 84 -192 177c0 99 91 190 246 190c101 0 185 -41 240 -103l-26 -22c-52 59 -127 94 -217 94c-132 0 -209 -77 -209 -156
c0 -77 74 -112 174 -150c110 -42 191 -86 191 -185c0 -101 -91 -198 -252 -198z" />
    <glyph glyph-name="T" unicode="T" horiz-adv-x="595" 
d="M208 0l179 669h-249l8 31h533l-8 -31h-250l-179 -669h-34z" />
    <glyph glyph-name="U" unicode="U" horiz-adv-x="754" 
d="M346 -11c-150 0 -249 79 -249 222c0 37 6 75 17 117l99 372h34l-102 -384c-10 -35 -14 -71 -14 -102c0 -124 83 -194 217 -194c67 0 134 24 186 77c42 42 79 108 106 206l106 397h34l-109 -405c-27 -102 -65 -171 -113 -219c-58 -58 -133 -87 -212 -87z" />
    <glyph glyph-name="V" unicode="V" horiz-adv-x="714" 
d="M269 -5l-119 705h35l107 -663l465 663h39l-499 -705h-28z" />
    <glyph glyph-name="W" unicode="W" horiz-adv-x="1058" 
d="M216 -5l-60 705h34l53 -655l387 657h26l43 -657l397 655h37l-432 -705h-28l-44 647l-385 -647h-28z" />
    <glyph glyph-name="X" unicode="X" horiz-adv-x="680" 
d="M-22 0l369 360l-190 340h36l178 -321l328 321h43l-356 -346l197 -354h-37l-183 334l-342 -334h-43z" />
    <glyph glyph-name="Y" unicode="Y" horiz-adv-x="666" 
d="M242 0l78 290l-183 410h36l170 -384l377 384h45l-413 -418l-76 -282h-34z" />
    <glyph glyph-name="Z" unicode="Z" horiz-adv-x="666" 
d="M-11 0l5 19l664 650h-473l9 31h526l-6 -19l-664 -650h489l-8 -31h-542z" />
    <glyph glyph-name="a" unicode="a" horiz-adv-x="568" 
d="M188 -12c-82 0 -163 49 -163 139c0 112 93 179 227 179c72 0 147 -13 205 -30l6 19c5 19 8 40 8 57c0 85 -66 130 -169 130c-55 0 -103 -12 -143 -26l-8 29c42 15 94 27 154 27c118 0 197 -54 197 -157c0 -19 -3 -42 -9 -65l-78 -290h-32l29 107
c-44 -67 -118 -119 -224 -119zM194 17c118 0 216 81 244 187l12 45c-58 16 -130 27 -203 27c-114 0 -188 -56 -188 -144c0 -75 64 -115 135 -115z" />
    <glyph glyph-name="a.alt" horiz-adv-x="652" 
d="M259 -12c-120 0 -206 92 -206 213c0 162 121 315 284 315c128 0 196 -86 213 -166l42 154h32l-135 -504h-32l31 115c-36 -56 -122 -127 -229 -127zM262 18c150 0 269 150 269 272c0 111 -76 196 -192 196c-150 0 -252 -143 -252 -280c0 -109 72 -188 175 -188z" />
    <glyph glyph-name="b" unicode="b" horiz-adv-x="652" 
d="M312 -12c-128 0 -196 85 -213 166l-42 -154h-32l196 730h32l-92 -342c36 57 123 128 229 128c121 0 206 -92 206 -214c0 -162 -121 -314 -284 -314zM311 18c150 0 251 143 251 280c0 109 -72 188 -175 188c-150 0 -269 -150 -269 -272c0 -111 76 -196 193 -196z" />
    <glyph glyph-name="c" unicode="c" horiz-adv-x="556" 
d="M270 -12c-110 0 -221 79 -221 218c0 165 138 310 297 310c103 0 167 -59 198 -120l-27 -15c-30 54 -82 105 -173 105c-139 0 -261 -130 -261 -279c0 -121 93 -189 188 -189c72 0 127 32 174 75l22 -20c-51 -48 -116 -85 -197 -85z" />
    <glyph glyph-name="d" unicode="d" horiz-adv-x="652" 
d="M259 -12c-120 0 -206 92 -206 213c0 162 121 315 284 315c128 0 196 -86 213 -166l103 380h32l-196 -730h-32l31 115c-36 -56 -122 -127 -229 -127zM262 18c150 0 269 150 269 272c0 111 -76 196 -192 196c-150 0 -252 -143 -252 -280c0 -109 72 -188 175 -188z" />
    <glyph glyph-name="e" unicode="e" horiz-adv-x="585" 
d="M87 242c-2 -14 -3 -28 -3 -42c0 -110 73 -182 188 -182c64 0 125 24 181 70l19 -23c-59 -50 -127 -77 -200 -77c-134 0 -223 84 -223 210c0 162 131 318 292 318c136 0 194 -95 194 -196c-1 -28 -4 -54 -12 -78h-436zM92 271h405c2 14 5 30 5 49c0 85 -47 166 -162 166
c-121 0 -219 -98 -248 -215z" />
    <glyph glyph-name="f" unicode="f" horiz-adv-x="340" 
d="M50 0l127 475h-77l8 29h77l22 82c29 109 90 144 158 144c36 0 67 -8 93 -23l-9 -29c-26 14 -54 22 -85 22c-53 0 -102 -28 -126 -120l-21 -76h183l-7 -29h-184l-127 -475h-32z" />
    <glyph glyph-name="g" unicode="g" horiz-adv-x="650" 
d="M237 -161c-90 0 -179 37 -238 94l23 23c53 -53 132 -86 217 -86c69 0 125 22 164 61c32 32 54 76 72 141l22 82c-48 -64 -125 -117 -227 -117c-111 0 -211 78 -211 196c0 153 127 283 283 283c126 0 191 -85 209 -160l40 148h32l-118 -440c-20 -73 -44 -117 -79 -153
c-48 -47 -110 -72 -189 -72zM275 68c149 0 259 128 259 236c0 93 -76 181 -193 181c-138 0 -248 -116 -248 -249c0 -102 83 -168 182 -168z" />
    <glyph glyph-name="h" unicode="h" horiz-adv-x="607" 
d="M25 0l196 730h32l-92 -341c42 66 109 127 210 127c109 0 169 -66 169 -163c0 -25 -5 -53 -13 -81l-72 -272h-32l73 273c7 26 10 53 10 77c0 81 -46 136 -142 136c-97 0 -198 -79 -232 -205l-75 -281h-32z" />
    <glyph glyph-name="i" unicode="i" horiz-adv-x="232" 
d="M198 643l17 61h43l-17 -61h-43zM31 0l136 504h32l-135 -504h-33z" />
    <glyph glyph-name="j" unicode="j" horiz-adv-x="232" 
d="M198 643l17 61h43l-17 -61h-43zM-72 -165c-20 0 -36 3 -51 8l9 29c9 -3 27 -7 39 -7c44 0 76 23 92 83l150 556h32l-151 -560c-20 -76 -66 -109 -120 -109z" />
    <glyph glyph-name="k" unicode="k" horiz-adv-x="550" 
d="M25 0l196 730h32l-149 -556l418 330h46l-285 -223l157 -281h-36l-146 262l-165 -129l-36 -133h-32z" />
    <glyph glyph-name="l" unicode="l" horiz-adv-x="231" 
d="M31 0l196 730h33l-196 -730h-33z" />
    <glyph glyph-name="m" unicode="m" horiz-adv-x="934" 
d="M25 0l135 504h32l-31 -115c41 65 100 127 191 127c94 0 146 -62 151 -144c42 77 114 144 211 144c95 0 154 -65 154 -157c0 -23 -6 -55 -14 -87l-73 -272h-32l73 273c8 29 12 59 12 84c0 77 -44 129 -127 129c-91 0 -183 -91 -214 -209l-74 -277h-32l73 273
c8 29 13 59 13 84c0 77 -44 129 -128 129c-91 0 -182 -91 -214 -209l-74 -277h-32z" />
    <glyph glyph-name="n" unicode="n" horiz-adv-x="607" 
d="M25 0l135 504h32l-31 -115c42 66 109 127 210 127c109 0 169 -66 169 -163c0 -25 -5 -53 -13 -81l-72 -272h-32l73 273c7 26 10 53 10 77c0 81 -46 136 -142 136c-97 0 -198 -79 -232 -205l-75 -281h-32z" />
    <glyph glyph-name="o" unicode="o" horiz-adv-x="626" 
d="M278 -12c-134 0 -228 95 -228 224c0 152 127 304 297 304c134 0 229 -95 229 -224c0 -154 -130 -304 -298 -304zM281 18c145 0 260 133 260 271c0 116 -79 197 -196 197c-147 0 -261 -135 -261 -271c0 -116 79 -197 197 -197z" />
    <glyph glyph-name="p" unicode="p" horiz-adv-x="652" 
d="M-18 -160l178 664h32l-31 -116c36 57 123 128 229 128c121 0 206 -92 206 -214c0 -162 -121 -314 -284 -314c-128 0 -196 85 -213 166l-85 -314h-32zM311 18c150 0 251 143 251 280c0 109 -72 188 -175 188c-150 0 -269 -150 -269 -272c0 -111 76 -196 193 -196z" />
    <glyph glyph-name="q" unicode="q" horiz-adv-x="652" 
d="M414 -160l74 276c-36 -57 -122 -128 -229 -128c-120 0 -206 92 -206 213c0 162 121 315 284 315c128 0 196 -85 213 -166l42 154h32l-178 -664h-32zM262 18c150 0 269 150 269 272c0 111 -76 196 -192 196c-150 0 -252 -143 -252 -280c0 -109 72 -188 175 -188z" />
    <glyph glyph-name="r" unicode="r" horiz-adv-x="362" 
d="M25 0l135 504h32l-40 -152c65 102 161 165 255 162l-9 -33h-2c-101 0 -237 -100 -276 -245l-63 -236h-32z" />
    <glyph glyph-name="s" unicode="s" horiz-adv-x="492" 
d="M212 -10c-75 0 -155 29 -210 83l23 23c54 -51 119 -76 190 -76c90 0 151 53 151 109c0 55 -38 80 -124 113c-85 32 -142 65 -142 132c0 73 69 140 183 140c59 0 131 -24 180 -66l-21 -24c-46 38 -107 60 -161 60c-96 0 -147 -53 -147 -105c0 -53 43 -77 125 -109
c89 -35 141 -68 141 -137c0 -74 -75 -143 -188 -143z" />
    <glyph glyph-name="t" unicode="t" horiz-adv-x="382" 
d="M196 -9c-71 0 -114 32 -114 96c0 15 3 33 7 50l90 338h-77l8 29h77l45 169h33l-46 -169h182l-8 -29h-181l-91 -339c-4 -16 -7 -33 -7 -46c0 -47 32 -69 88 -69c23 0 46 4 73 15l-9 -33c-24 -9 -44 -12 -70 -12z" />
    <glyph glyph-name="u" unicode="u" horiz-adv-x="607" 
d="M236 -12c-109 0 -169 66 -169 163c0 25 5 53 12 81l73 272h32l-73 -273c-7 -26 -11 -53 -11 -77c0 -81 47 -136 143 -136s198 79 231 205l75 281h33l-135 -504h-32l31 115c-43 -66 -110 -127 -210 -127z" />
    <glyph glyph-name="v" unicode="v" horiz-adv-x="559" 
d="M190 -4l-92 508h34l80 -468l329 468h38l-363 -508h-26z" />
    <glyph glyph-name="w" unicode="w" horiz-adv-x="821" 
d="M150 -4l-45 508h33l37 -460l282 463h27l33 -463l281 460h36l-314 -508h-28l-35 458l-280 -458h-27z" />
    <glyph glyph-name="x" unicode="x" horiz-adv-x="539" 
d="M-30 0l283 260l-137 244h36l123 -225l242 225h43l-270 -248l143 -256h-36l-130 236l-254 -236h-43z" />
    <glyph glyph-name="y" unicode="y" horiz-adv-x="571" 
d="M26 -163c-43 0 -76 13 -101 30l18 26c22 -16 53 -27 85 -27c50 0 99 25 175 133l-108 505h34l98 -473l326 473h38l-358 -514c-89 -127 -144 -153 -207 -153z" />
    <glyph glyph-name="z" unicode="z" horiz-adv-x="511" 
d="M-26 0l5 18l494 458h-359l8 28h410l-5 -18l-494 -458h374l-8 -28h-425z" />
    <glyph glyph-name="Aacute" unicode="&#xc1;" horiz-adv-x="764" 
d="M-29 0l522 705h31l142 -705h-34l-40 204h-432l-150 -204h-39zM183 235h403l-85 430zM506 772l125 107l38 -19l-130 -88h-33z" />
    <glyph glyph-name="aacute" unicode="&#xe1;" horiz-adv-x="568" 
d="M188 -12c-82 0 -163 49 -163 139c0 112 93 179 227 179c72 0 147 -13 205 -30l6 19c5 19 8 40 8 57c0 85 -66 130 -169 130c-55 0 -103 -12 -143 -26l-8 29c42 15 94 27 154 27c118 0 197 -54 197 -157c0 -19 -3 -42 -9 -65l-78 -290h-32l29 107
c-44 -67 -118 -119 -224 -119zM194 17c118 0 216 81 244 187l12 45c-58 16 -130 27 -203 27c-114 0 -188 -56 -188 -144c0 -75 64 -115 135 -115zM341 595l119 121l40 -19l-129 -102h-30z" />
    <glyph glyph-name="aacute.alt" horiz-adv-x="652" 
d="M386 595l119 121l40 -19l-129 -102h-30zM259 -12c-120 0 -206 92 -206 213c0 162 121 315 284 315c128 0 196 -86 213 -166l42 154h32l-135 -504h-32l31 115c-36 -56 -122 -127 -229 -127zM262 18c150 0 269 150 269 272c0 111 -76 196 -192 196
c-150 0 -252 -143 -252 -280c0 -109 72 -188 175 -188z" />
    <glyph glyph-name="Abreve" unicode="&#x102;" horiz-adv-x="764" 
d="M-29 0l522 705h31l142 -705h-34l-40 204h-432l-150 -204h-39zM183 235h403l-85 430zM532 771c-76 0 -113 37 -106 90h27c1 -35 21 -59 83 -59c61 0 98 25 118 59h29c-22 -53 -76 -90 -151 -90z" />
    <glyph glyph-name="abreve" unicode="&#x103;" horiz-adv-x="568" 
d="M188 -12c-82 0 -163 49 -163 139c0 112 93 179 227 179c72 0 147 -13 205 -30l6 19c5 19 8 40 8 57c0 85 -66 130 -169 130c-55 0 -103 -12 -143 -26l-8 29c42 15 94 27 154 27c118 0 197 -54 197 -157c0 -19 -3 -42 -9 -65l-78 -290h-32l29 107
c-44 -67 -118 -119 -224 -119zM194 17c118 0 216 81 244 187l12 45c-58 16 -130 27 -203 27c-114 0 -188 -56 -188 -144c0 -75 64 -115 135 -115zM363 594c-73 0 -112 41 -102 104h24c-1 -45 22 -74 83 -74c62 0 98 31 122 74h27c-24 -62 -78 -104 -154 -104z" />
    <glyph glyph-name="abreve.alt" horiz-adv-x="652" 
d="M259 -12c-120 0 -206 92 -206 213c0 162 121 315 284 315c128 0 196 -86 213 -166l42 154h32l-135 -504h-32l31 115c-36 -56 -122 -127 -229 -127zM262 18c150 0 269 150 269 272c0 111 -76 196 -192 196c-150 0 -252 -143 -252 -280c0 -109 72 -188 175 -188zM408 594
c-73 0 -112 41 -102 104h24c-1 -45 22 -74 83 -74c62 0 98 31 122 74h27c-24 -62 -78 -104 -154 -104z" />
    <glyph glyph-name="Acircumflex" unicode="&#xc2;" horiz-adv-x="764" 
d="M-29 0l522 705h31l142 -705h-34l-40 204h-432l-150 -204h-39zM183 235h403l-85 430zM401 769l132 101h29l78 -101h-31l-67 69l-105 -69h-36z" />
    <glyph glyph-name="acircumflex" unicode="&#xe2;" horiz-adv-x="568" 
d="M188 -12c-82 0 -163 49 -163 139c0 112 93 179 227 179c72 0 147 -13 205 -30l6 19c5 19 8 40 8 57c0 85 -66 130 -169 130c-55 0 -103 -12 -143 -26l-8 29c42 15 94 27 154 27c118 0 197 -54 197 -157c0 -19 -3 -42 -9 -65l-78 -290h-32l29 107
c-44 -67 -118 -119 -224 -119zM194 17c118 0 216 81 244 187l12 45c-58 16 -130 27 -203 27c-114 0 -188 -56 -188 -144c0 -75 64 -115 135 -115zM242 595l135 116h23l72 -116h-26l-64 79l-109 -79h-31z" />
    <glyph glyph-name="acircumflex.alt" horiz-adv-x="652" 
d="M287 595l135 116h23l72 -116h-26l-64 79l-109 -79h-31zM259 -12c-120 0 -206 92 -206 213c0 162 121 315 284 315c128 0 196 -86 213 -166l42 154h32l-135 -504h-32l31 115c-36 -56 -122 -127 -229 -127zM262 18c150 0 269 150 269 272c0 111 -76 196 -192 196
c-150 0 -252 -143 -252 -280c0 -109 72 -188 175 -188z" />
    <glyph glyph-name="Adieresis" unicode="&#xc4;" horiz-adv-x="764" 
d="M-29 0l522 705h31l142 -705h-34l-40 204h-432l-150 -204h-39zM183 235h403l-85 430zM583 783l16 61h52l-16 -61h-52zM428 783l16 61h53l-16 -61h-53z" />
    <glyph glyph-name="adieresis" unicode="&#xe4;" horiz-adv-x="568" 
d="M188 -12c-82 0 -163 49 -163 139c0 112 93 179 227 179c72 0 147 -13 205 -30l6 19c5 19 8 40 8 57c0 85 -66 130 -169 130c-55 0 -103 -12 -143 -26l-8 29c42 15 94 27 154 27c118 0 197 -54 197 -157c0 -19 -3 -42 -9 -65l-78 -290h-32l29 107
c-44 -67 -118 -119 -224 -119zM194 17c118 0 216 81 244 187l12 45c-58 16 -130 27 -203 27c-114 0 -188 -56 -188 -144c0 -75 64 -115 135 -115zM410 606l17 62h49l-17 -62h-49zM267 606l17 62h49l-17 -62h-49z" />
    <glyph glyph-name="adieresis.alt" horiz-adv-x="652" 
d="M455 606l17 62h49l-17 -62h-49zM312 606l17 62h49l-17 -62h-49zM259 -12c-120 0 -206 92 -206 213c0 162 121 315 284 315c128 0 196 -86 213 -166l42 154h32l-135 -504h-32l31 115c-36 -56 -122 -127 -229 -127zM262 18c150 0 269 150 269 272c0 111 -76 196 -192 196
c-150 0 -252 -143 -252 -280c0 -109 72 -188 175 -188z" />
    <glyph glyph-name="AE" unicode="&#xc6;" horiz-adv-x="1041" 
d="M-48 0l626 700h516l-9 -31h-443l-81 -301h399l-8 -31h-400l-82 -306h449l-8 -31h-483l55 204h-307l-183 -204h-41zM203 235h288l117 434h-18z" />
    <glyph glyph-name="ae" unicode="&#xe6;" horiz-adv-x="979" 
d="M459 122c-70 -84 -163 -134 -263 -134c-91 0 -171 50 -171 141c0 111 94 177 228 177c72 0 146 -12 204 -30l6 19c5 19 8 40 8 57c0 85 -66 130 -169 130c-55 0 -103 -12 -143 -26l-8 29c42 15 94 27 154 27c111 0 187 -48 194 -141c51 84 139 145 237 145
c135 0 194 -95 194 -196c0 -28 -5 -54 -12 -78h-436c-2 -14 -3 -28 -3 -42c0 -110 73 -182 188 -182c64 0 125 24 180 70l20 -23c-59 -50 -129 -77 -199 -77c-107 0 -181 52 -209 134zM487 271h404c3 14 6 30 6 49c0 85 -47 166 -162 166c-121 0 -219 -98 -248 -215z
M451 249c-57 17 -132 27 -203 27c-113 0 -189 -56 -189 -142c0 -76 64 -117 140 -117c93 0 186 51 252 136c-3 15 -4 30 -4 47c0 16 1 33 4 49z" />
    <glyph glyph-name="AEacute" unicode="&#x1fc;" horiz-adv-x="1041" 
d="M709 765l125 107l38 -19l-130 -88h-33zM-48 0l626 700h516l-9 -31h-443l-81 -301h399l-8 -31h-400l-82 -306h449l-8 -31h-483l55 204h-307l-183 -204h-41zM203 235h288l117 434h-18z" />
    <glyph glyph-name="aeacute" unicode="&#x1fd;" horiz-adv-x="979" 
d="M538 595l119 121l40 -19l-129 -102h-30zM459 122c-70 -84 -163 -134 -263 -134c-91 0 -171 50 -171 141c0 111 94 177 228 177c72 0 146 -12 204 -30l6 19c5 19 8 40 8 57c0 85 -66 130 -169 130c-55 0 -103 -12 -143 -26l-8 29c42 15 94 27 154 27
c111 0 187 -48 194 -141c51 84 139 145 237 145c135 0 194 -95 194 -196c0 -28 -5 -54 -12 -78h-436c-2 -14 -3 -28 -3 -42c0 -110 73 -182 188 -182c64 0 125 24 180 70l20 -23c-59 -50 -129 -77 -199 -77c-107 0 -181 52 -209 134zM487 271h404c3 14 6 30 6 49
c0 85 -47 166 -162 166c-121 0 -219 -98 -248 -215zM451 249c-57 17 -132 27 -203 27c-113 0 -189 -56 -189 -142c0 -76 64 -117 140 -117c93 0 186 51 252 136c-3 15 -4 30 -4 47c0 16 1 33 4 49z" />
    <glyph glyph-name="Agrave" unicode="&#xc0;" horiz-adv-x="764" 
d="M-29 0l522 705h31l142 -705h-34l-40 204h-432l-150 -204h-39zM183 235h403l-85 430zM455 879l68 -107h-24l-81 88z" />
    <glyph glyph-name="agrave" unicode="&#xe0;" horiz-adv-x="568" 
d="M188 -12c-82 0 -163 49 -163 139c0 112 93 179 227 179c72 0 147 -13 205 -30l6 19c5 19 8 40 8 57c0 85 -66 130 -169 130c-55 0 -103 -12 -143 -26l-8 29c42 15 94 27 154 27c118 0 197 -54 197 -157c0 -19 -3 -42 -9 -65l-78 -290h-32l29 107
c-44 -67 -118 -119 -224 -119zM194 17c118 0 216 81 244 187l12 45c-58 16 -130 27 -203 27c-114 0 -188 -56 -188 -144c0 -75 64 -115 135 -115zM340 595l-73 102l40 19l55 -121h-22z" />
    <glyph glyph-name="agrave.alt" horiz-adv-x="652" 
d="M259 -12c-120 0 -206 92 -206 213c0 162 121 315 284 315c128 0 196 -86 213 -166l42 154h32l-135 -504h-32l31 115c-36 -56 -122 -127 -229 -127zM262 18c150 0 269 150 269 272c0 111 -76 196 -192 196c-150 0 -252 -143 -252 -280c0 -109 72 -188 175 -188zM384 595
l-73 102l40 19l55 -121h-22z" />
    <glyph glyph-name="Amacron" unicode="&#x100;" horiz-adv-x="764" 
d="M-29 0l522 705h31l142 -705h-34l-40 204h-432l-150 -204h-39zM183 235h403l-85 430zM392 798l9 32h287l-8 -32h-288z" />
    <glyph glyph-name="amacron" unicode="&#x101;" horiz-adv-x="568" 
d="M188 -12c-82 0 -163 49 -163 139c0 112 93 179 227 179c72 0 147 -13 205 -30l6 19c5 19 8 40 8 57c0 85 -66 130 -169 130c-55 0 -103 -12 -143 -26l-8 29c42 15 94 27 154 27c118 0 197 -54 197 -157c0 -19 -3 -42 -9 -65l-78 -290h-32l29 107
c-44 -67 -118 -119 -224 -119zM194 17c118 0 216 81 244 187l12 45c-58 16 -130 27 -203 27c-114 0 -188 -56 -188 -144c0 -75 64 -115 135 -115zM229 621l8 30h278l-8 -30h-278z" />
    <glyph glyph-name="amacron.alt" horiz-adv-x="652" 
d="M259 -12c-120 0 -206 92 -206 213c0 162 121 315 284 315c128 0 196 -86 213 -166l42 154h32l-135 -504h-32l31 115c-36 -56 -122 -127 -229 -127zM262 18c150 0 269 150 269 272c0 111 -76 196 -192 196c-150 0 -252 -143 -252 -280c0 -109 72 -188 175 -188zM274 621
l8 30h278l-8 -30h-278z" />
    <glyph glyph-name="Aogonek" unicode="&#x104;" horiz-adv-x="764" 
d="M543 -99c0 38 35 72 88 105l-39 198h-432l-150 -204h-39l522 705h31l142 -705h-7c-54 -35 -81 -65 -81 -94c0 -25 22 -39 70 -43l-6 -24c-64 2 -99 25 -99 62zM183 235h403l-85 430z" />
    <glyph glyph-name="aogonek" unicode="&#x105;" horiz-adv-x="568" 
d="M296 -99c0 38 35 72 88 105l28 101c-44 -67 -118 -119 -224 -119c-82 0 -163 49 -163 139c0 112 93 179 227 179c72 0 147 -13 205 -30l6 19c5 19 8 40 8 57c0 85 -66 130 -169 130c-55 0 -103 -12 -143 -26l-8 29c42 15 94 27 154 27c118 0 197 -54 197 -157
c0 -19 -3 -42 -9 -65l-78 -290h-3c-54 -35 -81 -65 -81 -94c0 -25 22 -39 70 -43l-6 -24c-64 2 -99 25 -99 62zM194 17c118 0 216 81 244 187l12 45c-58 16 -130 27 -203 27c-114 0 -188 -56 -188 -144c0 -75 64 -115 135 -115z" />
    <glyph glyph-name="aogonek.alt" horiz-adv-x="652" 
d="M370 -99c0 38 35 72 88 105l30 109c-36 -56 -122 -127 -229 -127c-120 0 -206 92 -206 213c0 162 121 315 284 315c128 0 196 -86 213 -166l42 154h32l-135 -504h-3c-54 -35 -81 -65 -81 -94c0 -25 22 -39 70 -43l-6 -24c-64 2 -99 25 -99 62zM262 18
c150 0 269 150 269 272c0 111 -76 196 -192 196c-150 0 -252 -143 -252 -280c0 -109 72 -188 175 -188z" />
    <glyph glyph-name="Aring" unicode="&#xc5;" horiz-adv-x="764" 
d="M-29 0l500 675c-34 12 -54 40 -54 74c0 59 57 102 117 102c58 0 93 -34 93 -80c0 -53 -45 -92 -97 -101l136 -670h-34l-40 204h-432l-150 -204h-39zM183 235h403l-85 430zM513 692c43 0 87 32 87 77c0 34 -24 60 -69 60c-43 0 -87 -32 -87 -78c0 -35 25 -59 69 -59z" />
    <glyph glyph-name="aring" unicode="&#xe5;" horiz-adv-x="568" 
d="M188 -12c-82 0 -163 49 -163 139c0 112 93 179 227 179c72 0 147 -13 205 -30l6 19c5 19 8 40 8 57c0 85 -66 130 -169 130c-55 0 -103 -12 -143 -26l-8 29c42 15 94 27 154 27c118 0 197 -54 197 -157c0 -19 -3 -42 -9 -65l-78 -290h-32l29 107
c-44 -67 -118 -119 -224 -119zM194 17c118 0 216 81 244 187l12 45c-58 16 -130 27 -203 27c-114 0 -188 -56 -188 -144c0 -75 64 -115 135 -115zM378 594c-55 0 -93 37 -93 87c0 58 54 104 110 104c55 0 93 -37 93 -87c0 -58 -54 -104 -110 -104zM379 616c43 0 84 35 84 81
c0 38 -26 66 -69 66s-84 -36 -84 -81c0 -38 26 -66 69 -66z" />
    <glyph glyph-name="aring.alt" horiz-adv-x="652" 
d="M422 594c-55 0 -93 37 -93 87c0 58 54 104 110 104c55 0 93 -37 93 -87c0 -58 -54 -104 -110 -104zM423 616c43 0 84 35 84 81c0 38 -26 66 -69 66s-84 -36 -84 -81c0 -38 26 -66 69 -66zM259 -12c-120 0 -206 92 -206 213c0 162 121 315 284 315c128 0 196 -86 213 -166
l42 154h32l-135 -504h-32l31 115c-36 -56 -122 -127 -229 -127zM262 18c150 0 269 150 269 272c0 111 -76 196 -192 196c-150 0 -252 -143 -252 -280c0 -109 72 -188 175 -188z" />
    <glyph glyph-name="aring.alt2" horiz-adv-x="568" 
d="M188 -12c-82 0 -163 49 -163 139c0 112 93 179 227 179c72 0 147 -13 205 -30l6 19c5 19 8 40 8 57c0 85 -66 130 -169 130c-55 0 -103 -12 -143 -26l-8 29c37 14 85 24 138 26c-18 15 -27 37 -27 62c0 59 54 104 110 104c55 0 93 -36 93 -86c0 -43 -30 -78 -66 -93
c64 -22 103 -71 103 -143c0 -19 -3 -42 -9 -65l-78 -290h-32l29 107c-44 -67 -118 -119 -224 -119zM194 17c118 0 216 81 244 187l12 45c-58 16 -130 27 -203 27c-114 0 -188 -56 -188 -144c0 -75 64 -115 135 -115zM356 509c43 0 84 35 84 81c0 38 -26 65 -69 65
s-84 -35 -84 -81c0 -38 26 -65 69 -65z" />
    <glyph glyph-name="Aringacute" unicode="&#x1fa;" horiz-adv-x="764" 
d="M-29 0l500 675c-34 12 -54 40 -54 74c0 59 57 102 117 102c58 0 93 -34 93 -80c0 -53 -45 -92 -97 -101l136 -670h-34l-40 204h-432l-150 -204h-39zM183 235h403l-85 430zM513 692c43 0 87 32 87 77c0 34 -24 60 -69 60c-43 0 -87 -32 -87 -78c0 -35 25 -59 69 -59z
M537 882l116 93l36 -18l-118 -75h-34z" />
    <glyph glyph-name="aringacute" unicode="&#x1fb;" horiz-adv-x="568" 
d="M407 821l116 103l35 -18l-121 -85h-30zM188 -12c-82 0 -163 49 -163 139c0 112 93 179 227 179c72 0 147 -13 205 -30l6 19c5 19 8 40 8 57c0 85 -66 130 -169 130c-55 0 -103 -12 -143 -26l-8 29c42 15 94 27 154 27c118 0 197 -54 197 -157c0 -19 -3 -42 -9 -65
l-78 -290h-32l29 107c-44 -67 -118 -119 -224 -119zM194 17c118 0 216 81 244 187l12 45c-58 16 -130 27 -203 27c-114 0 -188 -56 -188 -144c0 -75 64 -115 135 -115zM379 594c-55 0 -93 37 -93 87c0 58 54 104 110 104c55 0 93 -37 93 -87c0 -58 -54 -104 -110 -104z
M380 616c43 0 84 35 84 81c0 38 -26 66 -69 66s-84 -36 -84 -81c0 -38 26 -66 69 -66z" />
    <glyph glyph-name="aringacute.alt" horiz-adv-x="652" 
d="M450 821l116 103l35 -18l-121 -85h-30zM422 594c-55 0 -93 37 -93 87c0 58 54 104 110 104c55 0 93 -37 93 -87c0 -58 -54 -104 -110 -104zM423 616c43 0 84 35 84 81c0 38 -26 66 -69 66s-84 -36 -84 -81c0 -38 26 -66 69 -66zM259 -12c-120 0 -206 92 -206 213
c0 162 121 315 284 315c128 0 196 -86 213 -166l42 154h32l-135 -504h-32l31 115c-36 -56 -122 -127 -229 -127zM262 18c150 0 269 150 269 272c0 111 -76 196 -192 196c-150 0 -252 -143 -252 -280c0 -109 72 -188 175 -188z" />
    <glyph glyph-name="aringacute.alt2" horiz-adv-x="568" 
d="M383 722l116 103l35 -19l-121 -84h-30zM188 -12c-82 0 -163 49 -163 139c0 112 93 179 227 179c72 0 147 -13 205 -30l6 19c5 19 8 40 8 57c0 85 -66 130 -169 130c-55 0 -103 -12 -143 -26l-8 29c37 14 85 24 138 26c-18 15 -27 37 -27 62c0 59 54 104 110 104
c55 0 93 -36 93 -86c0 -43 -30 -78 -66 -93c64 -22 103 -71 103 -143c0 -19 -3 -42 -9 -65l-78 -290h-32l29 107c-44 -67 -118 -119 -224 -119zM194 17c118 0 216 81 244 187l12 45c-58 16 -130 27 -203 27c-114 0 -188 -56 -188 -144c0 -75 64 -115 135 -115zM356 509
c43 0 84 35 84 81c0 38 -26 65 -69 65s-84 -35 -84 -81c0 -38 26 -65 69 -65z" />
    <glyph glyph-name="Atilde" unicode="&#xc3;" horiz-adv-x="764" 
d="M-29 0l522 705h31l142 -705h-34l-40 204h-432l-150 -204h-39zM183 235h403l-85 430zM413 772l-22 6c25 57 55 79 89 79c41 0 86 -46 121 -46c24 0 42 13 64 53l21 -6c-24 -57 -54 -79 -88 -79c-41 0 -87 46 -121 46c-24 0 -42 -13 -64 -53z" />
    <glyph glyph-name="atilde" unicode="&#xe3;" horiz-adv-x="568" 
d="M188 -12c-82 0 -163 49 -163 139c0 112 93 179 227 179c72 0 147 -13 205 -30l6 19c5 19 8 40 8 57c0 85 -66 130 -169 130c-55 0 -103 -12 -143 -26l-8 29c42 15 94 27 154 27c118 0 197 -54 197 -157c0 -19 -3 -42 -9 -65l-78 -290h-32l29 107
c-44 -67 -118 -119 -224 -119zM194 17c118 0 216 81 244 187l12 45c-58 16 -130 27 -203 27c-114 0 -188 -56 -188 -144c0 -75 64 -115 135 -115zM245 595l-22 5c26 64 54 86 89 86c41 0 88 -52 123 -52c24 0 41 14 64 58l21 -5c-26 -64 -54 -85 -89 -85
c-41 0 -87 51 -122 51c-24 0 -42 -13 -64 -58z" />
    <glyph glyph-name="atilde.alt" horiz-adv-x="652" 
d="M259 -12c-120 0 -206 92 -206 213c0 162 121 315 284 315c128 0 196 -86 213 -166l42 154h32l-135 -504h-32l31 115c-36 -56 -122 -127 -229 -127zM262 18c150 0 269 150 269 272c0 111 -76 196 -192 196c-150 0 -252 -143 -252 -280c0 -109 72 -188 175 -188zM290 595
l-22 5c26 64 54 86 89 86c41 0 88 -52 123 -52c24 0 41 14 64 58l21 -5c-26 -64 -54 -85 -89 -85c-41 0 -87 51 -122 51c-24 0 -42 -13 -64 -58z" />
    <glyph glyph-name="Cacute" unicode="&#x106;" horiz-adv-x="731" 
d="M373 -12c-152 0 -280 106 -280 282c0 229 184 442 417 442c120 0 210 -61 253 -152l-30 -14c-41 80 -114 135 -224 135c-215 0 -382 -199 -382 -410c0 -157 109 -252 249 -252c113 0 191 47 254 111l22 -21c-64 -66 -152 -121 -279 -121zM511 772l125 107l38 -19
l-130 -88h-33z" />
    <glyph glyph-name="cacute" unicode="&#x107;" horiz-adv-x="556" 
d="M359 595l119 121l40 -19l-129 -102h-30zM270 -12c-110 0 -221 79 -221 218c0 165 138 310 297 310c103 0 167 -59 198 -120l-27 -15c-30 54 -82 105 -173 105c-139 0 -261 -130 -261 -279c0 -121 93 -189 188 -189c72 0 127 32 174 75l22 -20c-51 -48 -116 -85 -197 -85z
" />
    <glyph glyph-name="Ccaron" unicode="&#x10c;" horiz-adv-x="731" 
d="M373 -12c-152 0 -280 106 -280 282c0 229 184 442 417 442c120 0 210 -61 253 -152l-30 -14c-41 80 -114 135 -224 135c-215 0 -382 -199 -382 -410c0 -157 109 -252 249 -252c113 0 191 47 254 111l22 -21c-64 -66 -152 -121 -279 -121zM685 873l-131 -101h-29l-79 101
h32l67 -69l104 69h36z" />
    <glyph glyph-name="ccaron" unicode="&#x10d;" horiz-adv-x="556" 
d="M519 711l-136 -116h-23l-72 116h27l63 -79l110 79h31zM270 -12c-110 0 -221 79 -221 218c0 165 138 310 297 310c103 0 167 -59 198 -120l-27 -15c-30 54 -82 105 -173 105c-139 0 -261 -130 -261 -279c0 -121 93 -189 188 -189c72 0 127 32 174 75l22 -20
c-51 -48 -116 -85 -197 -85z" />
    <glyph glyph-name="Ccedilla" unicode="&#xc7;" horiz-adv-x="731" 
d="M264 -144l-32 18l108 116c-137 14 -247 117 -247 280c0 229 184 442 417 442c120 0 210 -61 253 -152l-30 -14c-41 80 -114 135 -224 135c-215 0 -382 -199 -382 -410c0 -157 109 -252 249 -252c113 0 191 47 254 111l22 -21c-64 -66 -152 -121 -279 -121h-6z" />
    <glyph glyph-name="ccedilla" unicode="&#xe7;" horiz-adv-x="556" 
d="M157 -144l-32 18l109 117c-97 15 -185 91 -185 215c0 165 138 310 297 310c103 0 167 -59 198 -120l-27 -15c-30 54 -82 105 -173 105c-139 0 -261 -130 -261 -279c0 -121 93 -189 188 -189c72 0 127 32 174 75l22 -20c-51 -48 -116 -85 -197 -85h-10z" />
    <glyph glyph-name="Cdotaccent" unicode="&#x10a;" horiz-adv-x="731" 
d="M510 783l16 61h53l-16 -61h-53zM373 -12c-152 0 -280 106 -280 282c0 229 184 442 417 442c120 0 210 -61 253 -152l-30 -14c-41 80 -114 135 -224 135c-215 0 -382 -199 -382 -410c0 -157 109 -252 249 -252c113 0 191 47 254 111l22 -21c-64 -66 -152 -121 -279 -121z
" />
    <glyph glyph-name="cdotaccent" unicode="&#x10b;" horiz-adv-x="556" 
d="M270 -12c-110 0 -221 79 -221 218c0 165 138 310 297 310c103 0 167 -59 198 -120l-27 -15c-30 54 -82 105 -173 105c-139 0 -261 -130 -261 -279c0 -121 93 -189 188 -189c72 0 127 32 174 75l22 -20c-51 -48 -116 -85 -197 -85zM358 606l17 64h48l-17 -64h-48z" />
    <glyph glyph-name="Dcaron" unicode="&#x10e;" horiz-adv-x="766" 
d="M639 866l-131 -101h-29l-79 101h32l67 -69l104 69h36zM37 0l188 700h146c114 0 215 -32 278 -95c49 -49 77 -114 77 -199c0 -107 -40 -203 -110 -273c-84 -84 -211 -133 -356 -133h-223zM79 31h186c134 0 247 44 326 123c64 64 100 152 100 250c0 77 -25 136 -68 179
c-56 57 -145 86 -249 86h-124z" />
    <glyph glyph-name="dcaron" unicode="&#x10f;" horiz-adv-x="652" 
d="M719 581l56 149h39v-2l-76 -147h-19zM259 -12c-120 0 -206 92 -206 213c0 162 121 315 284 315c128 0 196 -86 213 -166l103 380h32l-196 -730h-32l31 115c-36 -56 -122 -127 -229 -127zM262 18c150 0 269 150 269 272c0 111 -76 196 -192 196
c-150 0 -252 -143 -252 -280c0 -109 72 -188 175 -188z" />
    <glyph glyph-name="Dcroat" unicode="&#x110;" horiz-adv-x="778" 
d="M49 0l90 336h-76l8 32h76l90 332h146c114 0 215 -32 278 -95c49 -49 77 -114 77 -199c0 -107 -40 -203 -110 -273c-84 -84 -211 -133 -356 -133h-223zM91 31h186c134 0 247 44 326 123c64 64 100 152 100 250c0 77 -25 136 -68 179c-56 57 -145 86 -249 86h-124l-81 -301
h243l-8 -32h-243z" />
    <glyph glyph-name="dcroat" unicode="&#x111;" horiz-adv-x="652" 
d="M438 618l8 29h184l23 83h32l-22 -83h70l-8 -29h-70l-166 -618h-32l31 115c-36 -56 -122 -127 -229 -127c-120 0 -206 92 -206 213c0 162 121 315 284 315c128 0 196 -86 213 -166l72 268h-184zM262 18c150 0 269 150 269 272c0 111 -76 196 -192 196
c-150 0 -252 -143 -252 -280c0 -109 72 -188 175 -188z" />
    <glyph glyph-name="Eacute" unicode="&#xc9;" horiz-adv-x="656" 
d="M459 765l125 107l38 -19l-130 -88h-33zM37 0l188 700h490l-9 -31h-456l-81 -301h413l-8 -31h-413l-82 -306h461l-8 -31h-495z" />
    <glyph glyph-name="eacute" unicode="&#xe9;" horiz-adv-x="585" 
d="M364 595l119 121l40 -19l-129 -102h-30zM87 242c-2 -14 -3 -28 -3 -42c0 -110 73 -182 188 -182c64 0 125 24 181 70l19 -23c-59 -50 -127 -77 -200 -77c-134 0 -223 84 -223 210c0 162 131 318 292 318c136 0 194 -95 194 -196c-1 -28 -4 -54 -12 -78h-436zM92 271h405
c2 14 5 30 5 49c0 85 -47 166 -162 166c-121 0 -219 -98 -248 -215z" />
    <glyph glyph-name="Ebreve" unicode="&#x114;" horiz-adv-x="656" 
d="M484 764c-76 0 -113 37 -106 90h27c1 -35 21 -59 83 -59c61 0 98 25 118 59h29c-22 -53 -76 -90 -151 -90zM37 0l188 700h490l-9 -31h-456l-81 -301h413l-8 -31h-413l-82 -306h461l-8 -31h-495z" />
    <glyph glyph-name="ebreve" unicode="&#x115;" horiz-adv-x="585" 
d="M87 242c-2 -14 -3 -28 -3 -42c0 -110 73 -182 188 -182c64 0 125 24 181 70l19 -23c-59 -50 -127 -77 -200 -77c-134 0 -223 84 -223 210c0 162 131 318 292 318c136 0 194 -95 194 -196c-1 -28 -4 -54 -12 -78h-436zM92 271h405c2 14 5 30 5 49c0 85 -47 166 -162 166
c-121 0 -219 -98 -248 -215zM387 594c-73 0 -112 41 -102 104h24c-1 -45 22 -74 83 -74c62 0 98 31 122 74h27c-24 -62 -78 -104 -154 -104z" />
    <glyph glyph-name="Ecaron" unicode="&#x11a;" horiz-adv-x="656" 
d="M632 866l-131 -101h-29l-79 101h32l67 -69l104 69h36zM37 0l188 700h490l-9 -31h-456l-81 -301h413l-8 -31h-413l-82 -306h461l-8 -31h-495z" />
    <glyph glyph-name="ecaron" unicode="&#x11b;" horiz-adv-x="585" 
d="M525 711l-136 -116h-23l-72 116h27l63 -79l110 79h31zM87 242c-2 -14 -3 -28 -3 -42c0 -110 73 -182 188 -182c64 0 125 24 181 70l19 -23c-59 -50 -127 -77 -200 -77c-134 0 -223 84 -223 210c0 162 131 318 292 318c136 0 194 -95 194 -196c-1 -28 -4 -54 -12 -78h-436
zM92 271h405c2 14 5 30 5 49c0 85 -47 166 -162 166c-121 0 -219 -98 -248 -215z" />
    <glyph glyph-name="Ecircumflex" unicode="&#xca;" horiz-adv-x="656" 
d="M37 0l188 700h490l-9 -31h-456l-81 -301h413l-8 -31h-413l-82 -306h461l-8 -31h-495zM354 765l132 101h29l78 -101h-31l-67 69l-105 -69h-36z" />
    <glyph glyph-name="ecircumflex" unicode="&#xea;" horiz-adv-x="585" 
d="M265 595l135 116h23l72 -116h-26l-64 79l-109 -79h-31zM87 242c-2 -14 -3 -28 -3 -42c0 -110 73 -182 188 -182c64 0 125 24 181 70l19 -23c-59 -50 -127 -77 -200 -77c-134 0 -223 84 -223 210c0 162 131 318 292 318c136 0 194 -95 194 -196c-1 -28 -4 -54 -12 -78
h-436zM92 271h405c2 14 5 30 5 49c0 85 -47 166 -162 166c-121 0 -219 -98 -248 -215z" />
    <glyph glyph-name="Edieresis" unicode="&#xcb;" horiz-adv-x="656" 
d="M535 776l16 61h52l-16 -61h-52zM380 776l16 61h53l-16 -61h-53zM37 0l188 700h490l-9 -31h-456l-81 -301h413l-8 -31h-413l-82 -306h461l-8 -31h-495z" />
    <glyph glyph-name="edieresis" unicode="&#xeb;" horiz-adv-x="585" 
d="M434 606l17 62h49l-17 -62h-49zM291 606l17 62h49l-17 -62h-49zM87 242c-2 -14 -3 -28 -3 -42c0 -110 73 -182 188 -182c64 0 125 24 181 70l19 -23c-59 -50 -127 -77 -200 -77c-134 0 -223 84 -223 210c0 162 131 318 292 318c136 0 194 -95 194 -196
c-1 -28 -4 -54 -12 -78h-436zM92 271h405c2 14 5 30 5 49c0 85 -47 166 -162 166c-121 0 -219 -98 -248 -215z" />
    <glyph glyph-name="Edotaccent" unicode="&#x116;" horiz-adv-x="656" 
d="M457 776l16 61h53l-16 -61h-53zM37 0l188 700h490l-9 -31h-456l-81 -301h413l-8 -31h-413l-82 -306h461l-8 -31h-495z" />
    <glyph glyph-name="edotaccent" unicode="&#x117;" horiz-adv-x="585" 
d="M87 242c-2 -14 -3 -28 -3 -42c0 -110 73 -182 188 -182c64 0 125 24 181 70l19 -23c-59 -50 -127 -77 -200 -77c-134 0 -223 84 -223 210c0 162 131 318 292 318c136 0 194 -95 194 -196c-1 -28 -4 -54 -12 -78h-436zM92 271h405c2 14 5 30 5 49c0 85 -47 166 -162 166
c-121 0 -219 -98 -248 -215zM363 606l17 64h48l-17 -64h-48z" />
    <glyph glyph-name="Egrave" unicode="&#xc8;" horiz-adv-x="656" 
d="M408 872l68 -107h-24l-81 88zM37 0l188 700h490l-9 -31h-456l-81 -301h413l-8 -31h-413l-82 -306h461l-8 -31h-495z" />
    <glyph glyph-name="egrave" unicode="&#xe8;" horiz-adv-x="585" 
d="M87 242c-2 -14 -3 -28 -3 -42c0 -110 73 -182 188 -182c64 0 125 24 181 70l19 -23c-59 -50 -127 -77 -200 -77c-134 0 -223 84 -223 210c0 162 131 318 292 318c136 0 194 -95 194 -196c-1 -28 -4 -54 -12 -78h-436zM92 271h405c2 14 5 30 5 49c0 85 -47 166 -162 166
c-121 0 -219 -98 -248 -215zM363 595l-73 102l40 19l55 -121h-22z" />
    <glyph glyph-name="Emacron" unicode="&#x112;" horiz-adv-x="656" 
d="M344 791l9 32h287l-8 -32h-288zM37 0l188 700h490l-9 -31h-456l-81 -301h413l-8 -31h-413l-82 -306h461l-8 -31h-495z" />
    <glyph glyph-name="emacron" unicode="&#x113;" horiz-adv-x="585" 
d="M87 242c-2 -14 -3 -28 -3 -42c0 -110 73 -182 188 -182c64 0 125 24 181 70l19 -23c-59 -50 -127 -77 -200 -77c-134 0 -223 84 -223 210c0 162 131 318 292 318c136 0 194 -95 194 -196c-1 -28 -4 -54 -12 -78h-436zM92 271h405c2 14 5 30 5 49c0 85 -47 166 -162 166
c-121 0 -219 -98 -248 -215zM252 621l8 30h278l-8 -30h-278z" />
    <glyph glyph-name="Eogonek" unicode="&#x118;" horiz-adv-x="656" 
d="M37 0l188 700h490l-9 -31h-456l-81 -301h413l-8 -31h-413l-82 -306h461l-8 -31h-13c-54 -35 -81 -65 -81 -94c0 -25 22 -39 70 -43l-6 -24c-64 2 -99 25 -99 62c0 36 31 68 78 99h-444z" />
    <glyph glyph-name="eogonek" unicode="&#x119;" horiz-adv-x="585" 
d="M272 -12c-134 0 -223 84 -223 210c0 162 131 318 292 318c136 0 194 -95 194 -196c-1 -28 -4 -54 -12 -78h-436c-2 -14 -3 -28 -3 -42c0 -110 73 -182 188 -182c64 0 125 24 181 70l19 -23c-14 -12 -69 -50 -88 -62c-57 -38 -85 -68 -85 -97c0 -25 22 -39 70 -43l-6 -24
c-63 2 -99 25 -99 62c0 34 29 65 73 95c-22 -5 -45 -8 -65 -8zM340 486c-121 0 -219 -98 -248 -215h405c2 14 5 30 5 49c0 85 -47 166 -162 166z" />
    <glyph glyph-name="Eth" unicode="&#xd0;" horiz-adv-x="778" 
d="M49 0l90 336h-76l8 32h76l90 332h146c114 0 215 -32 278 -95c49 -49 77 -114 77 -199c0 -107 -40 -203 -110 -273c-84 -84 -211 -133 -356 -133h-223zM91 31h186c134 0 247 44 326 123c64 64 100 152 100 250c0 77 -25 136 -68 179c-56 57 -145 86 -249 86h-124l-81 -301
h243l-8 -32h-243z" />
    <glyph glyph-name="eth" unicode="&#xf0;" horiz-adv-x="618" 
d="M551 710l-111 -52c77 -105 129 -224 129 -345c0 -105 -34 -182 -93 -241c-51 -51 -121 -84 -201 -84c-138 0 -224 97 -224 226c0 152 122 297 284 297c98 0 164 -51 201 -123c-16 78 -58 167 -125 257l-144 -67l-13 26l139 64c-17 21 -34 41 -53 62h42
c14 -16 27 -32 40 -48l116 54zM277 18c145 0 258 131 258 267c0 111 -79 196 -201 196c-143 0 -249 -130 -249 -264c0 -117 72 -199 192 -199z" />
    <glyph glyph-name="Gbreve" unicode="&#x11e;" horiz-adv-x="782" 
d="M548 771c-76 0 -113 37 -106 90h27c1 -35 21 -59 83 -59c61 0 98 25 118 59h29c-22 -53 -76 -90 -151 -90zM392 -12c-178 0 -296 121 -296 293c0 222 181 431 424 431c130 0 207 -58 252 -126l-27 -18c-43 63 -107 113 -227 113c-221 0 -387 -193 -387 -399
c0 -156 102 -264 263 -264c85 0 161 28 217 64l69 241h-241l8 33h275l-83 -293c-71 -46 -156 -75 -247 -75z" />
    <glyph glyph-name="gbreve" unicode="&#x11f;" horiz-adv-x="650" 
d="M237 -161c-90 0 -179 37 -238 94l23 23c53 -53 132 -86 217 -86c69 0 125 22 164 61c32 32 54 76 72 141l22 82c-48 -64 -125 -117 -227 -117c-111 0 -211 78 -211 196c0 153 127 283 283 283c126 0 191 -85 209 -160l40 148h32l-118 -440c-20 -73 -44 -117 -79 -153
c-48 -47 -110 -72 -189 -72zM275 68c149 0 259 128 259 236c0 93 -76 181 -193 181c-138 0 -248 -116 -248 -249c0 -102 83 -168 182 -168zM413 594c-73 0 -112 41 -102 104h24c-1 -45 22 -74 83 -74c62 0 98 31 122 74h27c-24 -62 -78 -104 -154 -104z" />
    <glyph glyph-name="Gcommaaccent" unicode="&#x122;" horiz-adv-x="782" 
d="M265 -202l-2 17c28 8 43 23 51 51h-24l16 57h50l-11 -40c-15 -56 -37 -76 -80 -85zM392 -12c-178 0 -296 121 -296 293c0 222 181 431 424 431c130 0 207 -58 252 -126l-27 -18c-43 63 -107 113 -227 113c-221 0 -387 -193 -387 -399c0 -156 102 -264 263 -264
c85 0 161 28 217 64l69 241h-241l8 33h275l-83 -293c-71 -46 -156 -75 -247 -75z" />
    <glyph glyph-name="gcommaaccent" unicode="&#x123;" horiz-adv-x="650" 
d="M479 730l2 -17c-28 -8 -43 -23 -51 -51h24l-16 -57h-50l11 40c15 56 37 76 80 85zM237 -161c-90 0 -179 37 -238 94l23 23c53 -53 132 -86 217 -86c69 0 125 22 164 61c32 32 54 76 72 141l22 82c-48 -64 -125 -117 -227 -117c-111 0 -211 78 -211 196
c0 153 127 283 283 283c126 0 191 -85 209 -160l40 148h32l-118 -440c-20 -73 -44 -117 -79 -153c-48 -47 -110 -72 -189 -72zM275 68c149 0 259 128 259 236c0 93 -76 181 -193 181c-138 0 -248 -116 -248 -249c0 -102 83 -168 182 -168z" />
    <glyph glyph-name="Gdotaccent" unicode="&#x120;" horiz-adv-x="782" 
d="M521 783l16 61h53l-16 -61h-53zM392 -12c-178 0 -296 121 -296 293c0 222 181 431 424 431c130 0 207 -58 252 -126l-27 -18c-43 63 -107 113 -227 113c-221 0 -387 -193 -387 -399c0 -156 102 -264 263 -264c85 0 161 28 217 64l69 241h-241l8 33h275l-83 -293
c-71 -46 -156 -75 -247 -75z" />
    <glyph glyph-name="gdotaccent" unicode="&#x121;" horiz-adv-x="650" 
d="M237 -161c-90 0 -179 37 -238 94l23 23c53 -53 132 -86 217 -86c69 0 125 22 164 61c32 32 54 76 72 141l22 82c-48 -64 -125 -117 -227 -117c-111 0 -211 78 -211 196c0 153 127 283 283 283c126 0 191 -85 209 -160l40 148h32l-118 -440c-20 -73 -44 -117 -79 -153
c-48 -47 -110 -72 -189 -72zM275 68c149 0 259 128 259 236c0 93 -76 181 -193 181c-138 0 -248 -116 -248 -249c0 -102 83 -168 182 -168zM390 606l17 64h48l-17 -64h-48z" />
    <glyph glyph-name="Hbar" unicode="&#x126;" horiz-adv-x="754" 
d="M102 521l8 29h75l40 150h34l-41 -150h478l40 150h34l-41 -150h76l-8 -29h-76l-139 -521h-34l90 335h-477l-90 -335h-34l140 521h-75zM169 366h477l42 155h-478z" />
    <glyph glyph-name="hbar" unicode="&#x127;" horiz-adv-x="607" 
d="M25 0l166 618h-71l8 29h71l22 83h32l-23 -83h185l-7 -29h-186l-61 -229c42 66 109 127 210 127c109 0 169 -66 169 -163c0 -25 -5 -53 -13 -81l-72 -272h-32l73 273c7 26 10 53 10 77c0 81 -46 136 -142 136c-97 0 -198 -79 -232 -205l-75 -281h-32z" />
    <glyph glyph-name="Iacute" unicode="&#xcd;" horiz-adv-x="256" 
d="M43 0l188 700h34l-188 -700h-34zM244 765l125 107l38 -19l-130 -88h-33z" />
    <glyph glyph-name="iacute" unicode="&#xed;" horiz-adv-x="232" 
d="M188 595l119 121l40 -19l-129 -102h-30zM31 0l136 504h32l-135 -504h-33z" />
    <glyph glyph-name="Ibreve" unicode="&#x12c;" horiz-adv-x="256" 
d="M43 0l188 700h34l-188 -700h-34zM269 764c-76 0 -113 37 -106 90h27c1 -35 21 -59 83 -59c61 0 98 25 118 59h29c-22 -53 -76 -90 -151 -90z" />
    <glyph glyph-name="ibreve" unicode="&#x12d;" horiz-adv-x="232" 
d="M31 0l136 504h32l-135 -504h-33zM210 594c-73 0 -112 41 -102 104h24c-1 -45 22 -74 83 -74c62 0 98 31 122 74h27c-24 -62 -78 -104 -154 -104z" />
    <glyph glyph-name="Icircumflex" unicode="&#xce;" horiz-adv-x="256" 
d="M43 0l188 700h34l-188 -700h-34zM139 765l132 101h29l78 -101h-31l-67 69l-105 -69h-36z" />
    <glyph glyph-name="icircumflex" unicode="&#xee;" horiz-adv-x="232" 
d="M89 595l135 116h23l72 -116h-26l-64 79l-109 -79h-31zM31 0l136 504h32l-135 -504h-33z" />
    <glyph glyph-name="Idieresis" unicode="&#xcf;" horiz-adv-x="256" 
d="M43 0l188 700h34l-188 -700h-34zM320 776l16 61h52l-16 -61h-52zM165 776l16 61h53l-16 -61h-53z" />
    <glyph glyph-name="idieresis" unicode="&#xef;" horiz-adv-x="232" 
d="M257 606l17 62h49l-17 -62h-49zM114 606l17 62h49l-17 -62h-49zM31 0l136 504h32l-135 -504h-33z" />
    <glyph glyph-name="Idotaccent" unicode="&#x130;" horiz-adv-x="256" 
d="M43 0l188 700h34l-188 -700h-34zM242 776l16 61h53l-16 -61h-53z" />
    <glyph glyph-name="dotlessi" unicode="&#x131;" horiz-adv-x="232" 
d="M31 0l136 504h32l-135 -504h-33z" />
    <glyph glyph-name="Igrave" unicode="&#xcc;" horiz-adv-x="256" 
d="M43 0l188 700h34l-188 -700h-34zM193 872l68 -107h-24l-81 88z" />
    <glyph glyph-name="igrave" unicode="&#xec;" horiz-adv-x="232" 
d="M31 0l136 504h32l-135 -504h-33zM186 595l-73 102l40 19l55 -121h-22z" />
    <glyph glyph-name="Imacron" unicode="&#x12a;" horiz-adv-x="256" 
d="M43 0l188 700h34l-188 -700h-34zM129 791l9 32h287l-8 -32h-288z" />
    <glyph glyph-name="imacron" unicode="&#x12b;" horiz-adv-x="232" 
d="M31 0l136 504h32l-135 -504h-33zM75 621l8 30h278l-8 -30h-278z" />
    <glyph glyph-name="Iogonek" unicode="&#x12e;" horiz-adv-x="256" 
d="M-42 -99c0 38 35 71 86 104l187 695h34l-188 -700h-3c-54 -35 -81 -65 -81 -94c0 -25 22 -39 70 -43l-6 -24c-64 2 -99 25 -99 62z" />
    <glyph glyph-name="iogonek" unicode="&#x12f;" horiz-adv-x="232" 
d="M-55 -99c0 38 36 72 87 104l135 499h32l-135 -504h-3c-54 -35 -81 -65 -81 -94c0 -25 22 -39 70 -43l-6 -24c-64 2 -99 25 -99 62zM198 643l17 61h43l-17 -61h-43z" />
    <glyph glyph-name="Kcommaaccent" unicode="&#x136;" horiz-adv-x="709" 
d="M212 -194l-2 17c28 8 43 23 51 51h-24l16 57h50l-11 -40c-15 -56 -37 -76 -80 -85zM37 0l188 700h34l-125 -466l589 466h51l-386 -303l209 -397h-38l-198 377l-240 -189l-50 -188h-34z" />
    <glyph glyph-name="kcommaaccent" unicode="&#x137;" horiz-adv-x="550" 
d="M126 -196l-2 17c28 8 43 23 51 51h-24l16 57h50l-11 -40c-15 -56 -37 -76 -80 -85zM25 0l196 730h32l-149 -556l418 330h46l-285 -223l157 -281h-36l-146 262l-165 -129l-36 -133h-32z" />
    <glyph glyph-name="Lacute" unicode="&#x139;" horiz-adv-x="590" 
d="M250 765l125 107l38 -19l-130 -88h-33zM37 0l188 700h34l-180 -669h422l-8 -31h-456z" />
    <glyph glyph-name="lacute" unicode="&#x13a;" horiz-adv-x="231" 
d="M244 781l125 107l38 -19l-130 -88h-33zM31 0l196 730h33l-196 -730h-33z" />
    <glyph glyph-name="Lcaron" unicode="&#x13d;" horiz-adv-x="590" 
d="M319 551l56 149h39v-2l-76 -147h-19zM37 0l188 700h34l-180 -669h422l-8 -31h-456z" />
    <glyph glyph-name="lcaron" unicode="&#x13e;" horiz-adv-x="231" 
d="M294 581l56 149h39v-2l-76 -147h-19zM31 0l196 730h33l-196 -730h-33z" />
    <glyph glyph-name="Lcommaaccent" unicode="&#x13b;" horiz-adv-x="590" 
d="M168 -199l-2 17c28 8 43 23 51 51h-24l16 57h50l-11 -40c-15 -56 -37 -76 -80 -85zM37 0l188 700h34l-180 -669h422l-8 -31h-456z" />
    <glyph glyph-name="lcommaaccent" unicode="&#x13c;" horiz-adv-x="231" 
d="M-33 -199l-2 17c28 8 43 23 51 51h-24l16 57h50l-11 -40c-15 -56 -37 -76 -80 -85zM31 0l196 730h33l-196 -730h-33z" />
    <glyph glyph-name="Ldot" unicode="&#x13f;" horiz-adv-x="598" 
d="M438 324l19 66h47l-18 -66h-48zM37 0l188 700h34l-180 -669h422l-8 -31h-456z" />
    <glyph glyph-name="ldot" unicode="&#x140;" horiz-adv-x="255" 
d="M240 332l18 67h48l-18 -67h-48zM31 0l196 730h33l-196 -730h-33z" />
    <glyph glyph-name="Lslash" unicode="&#x141;" horiz-adv-x="625" 
d="M451 413l-256 -76l-82 -306h422l-8 -31h-456l87 326l-94 -28l8 32l95 28l92 342h34l-89 -331l255 76z" />
    <glyph glyph-name="lslash" unicode="&#x142;" horiz-adv-x="279" 
d="M269 383l-85 -26l-96 -357h-33l93 347l-84 -25l8 32l84 25l95 351h33l-92 -340l85 25z" />
    <glyph glyph-name="Nacute" unicode="&#x143;" horiz-adv-x="784" 
d="M507 760l125 107l38 -19l-130 -88h-33zM37 0l188 700h31l337 -647l174 647h33l-188 -700h-28l-340 652l-175 -652h-32z" />
    <glyph glyph-name="nacute" unicode="&#x144;" horiz-adv-x="607" 
d="M372 595l119 121l40 -19l-129 -102h-30zM25 0l135 504h32l-31 -115c42 66 109 127 210 127c109 0 169 -66 169 -163c0 -25 -5 -53 -13 -81l-72 -272h-32l73 273c7 26 10 53 10 77c0 81 -46 136 -142 136c-97 0 -198 -79 -232 -205l-75 -281h-32z" />
    <glyph glyph-name="Ncaron" unicode="&#x147;" horiz-adv-x="784" 
d="M680 861l-131 -101h-29l-79 101h32l67 -69l104 69h36zM37 0l188 700h31l337 -647l174 647h33l-188 -700h-28l-340 652l-175 -652h-32z" />
    <glyph glyph-name="ncaron" unicode="&#x148;" horiz-adv-x="607" 
d="M533 711l-136 -116h-23l-72 116h27l63 -79l110 79h31zM25 0l135 504h32l-31 -115c42 66 109 127 210 127c109 0 169 -66 169 -163c0 -25 -5 -53 -13 -81l-72 -272h-32l73 273c7 26 10 53 10 77c0 81 -46 136 -142 136c-97 0 -198 -79 -232 -205l-75 -281h-32z" />
    <glyph glyph-name="Ncommaaccent" unicode="&#x145;" horiz-adv-x="784" 
d="M246 -194l-2 17c28 8 43 23 51 51h-24l16 57h50l-11 -40c-15 -56 -37 -76 -80 -85zM37 0l188 700h31l337 -647l174 647h33l-188 -700h-28l-340 652l-175 -652h-32z" />
    <glyph glyph-name="ncommaaccent" unicode="&#x146;" horiz-adv-x="607" 
d="M152 -196l-2 17c28 8 43 23 51 51h-24l16 57h50l-11 -40c-15 -56 -37 -76 -80 -85zM25 0l135 504h32l-31 -115c42 66 109 127 210 127c109 0 169 -66 169 -163c0 -25 -5 -53 -13 -81l-72 -272h-32l73 273c7 26 10 53 10 77c0 81 -46 136 -142 136
c-97 0 -198 -79 -232 -205l-75 -281h-32z" />
    <glyph glyph-name="Ntilde" unicode="&#xd1;" horiz-adv-x="784" 
d="M414 760l-22 6c25 57 55 79 89 79c41 0 86 -46 121 -46c24 0 42 13 64 53l21 -6c-24 -57 -54 -79 -88 -79c-41 0 -87 46 -121 46c-24 0 -42 -13 -64 -53zM37 0l188 700h31l337 -647l174 647h33l-188 -700h-28l-340 652l-175 -652h-32z" />
    <glyph glyph-name="ntilde" unicode="&#xf1;" horiz-adv-x="607" 
d="M25 0l135 504h32l-31 -115c42 66 109 127 210 127c109 0 169 -66 169 -163c0 -25 -5 -53 -13 -81l-72 -272h-32l73 273c7 26 10 53 10 77c0 81 -46 136 -142 136c-97 0 -198 -79 -232 -205l-75 -281h-32zM276 595l-22 5c26 64 54 86 89 86c41 0 88 -52 123 -52
c24 0 41 14 64 58l21 -5c-26 -64 -54 -85 -89 -85c-41 0 -87 51 -122 51c-24 0 -42 -13 -64 -58z" />
    <glyph glyph-name="Oacute" unicode="&#xd3;" horiz-adv-x="841" 
d="M527 772l125 107l38 -19l-130 -88h-33zM397 -12c-177 0 -300 133 -300 302c0 218 177 422 399 422c178 0 301 -133 301 -302c0 -218 -178 -422 -400 -422zM398 18c205 0 364 190 364 391c0 153 -107 272 -267 272c-205 0 -364 -189 -364 -391c0 -152 108 -272 267 -272z
" />
    <glyph glyph-name="oacute" unicode="&#xf3;" horiz-adv-x="626" 
d="M378 595l119 121l40 -19l-129 -102h-30zM278 -12c-134 0 -228 95 -228 224c0 152 127 304 297 304c134 0 229 -95 229 -224c0 -154 -130 -304 -298 -304zM281 18c145 0 260 133 260 271c0 116 -79 197 -196 197c-147 0 -261 -135 -261 -271c0 -116 79 -197 197 -197z" />
    <glyph glyph-name="Obreve" unicode="&#x14e;" horiz-adv-x="841" 
d="M553 771c-76 0 -113 37 -106 90h27c1 -35 21 -59 83 -59c61 0 98 25 118 59h29c-22 -53 -76 -90 -151 -90zM397 -12c-177 0 -300 133 -300 302c0 218 177 422 399 422c178 0 301 -133 301 -302c0 -218 -178 -422 -400 -422zM398 18c205 0 364 190 364 391
c0 153 -107 272 -267 272c-205 0 -364 -189 -364 -391c0 -152 108 -272 267 -272z" />
    <glyph glyph-name="obreve" unicode="&#x14f;" horiz-adv-x="626" 
d="M278 -12c-134 0 -228 95 -228 224c0 152 127 304 297 304c134 0 229 -95 229 -224c0 -154 -130 -304 -298 -304zM281 18c145 0 260 133 260 271c0 116 -79 197 -196 197c-147 0 -261 -135 -261 -271c0 -116 79 -197 197 -197zM400 594c-73 0 -112 41 -102 104h24
c-1 -45 22 -74 83 -74c62 0 98 31 122 74h27c-24 -62 -78 -104 -154 -104z" />
    <glyph glyph-name="Ocircumflex" unicode="&#xd4;" horiz-adv-x="841" 
d="M397 -12c-177 0 -300 133 -300 302c0 218 177 422 399 422c178 0 301 -133 301 -302c0 -218 -178 -422 -400 -422zM398 18c205 0 364 190 364 391c0 153 -107 272 -267 272c-205 0 -364 -189 -364 -391c0 -152 108 -272 267 -272zM424 772l132 101h29l78 -101h-31l-67 69
l-105 -69h-36z" />
    <glyph glyph-name="ocircumflex" unicode="&#xf4;" horiz-adv-x="626" 
d="M279 595l135 116h23l72 -116h-26l-64 79l-109 -79h-31zM278 -12c-134 0 -228 95 -228 224c0 152 127 304 297 304c134 0 229 -95 229 -224c0 -154 -130 -304 -298 -304zM281 18c145 0 260 133 260 271c0 116 -79 197 -196 197c-147 0 -261 -135 -261 -271
c0 -116 79 -197 197 -197z" />
    <glyph glyph-name="Odieresis" unicode="&#xd6;" horiz-adv-x="841" 
d="M604 783l16 61h52l-16 -61h-52zM449 783l16 61h53l-16 -61h-53zM397 -12c-177 0 -300 133 -300 302c0 218 177 422 399 422c178 0 301 -133 301 -302c0 -218 -178 -422 -400 -422zM398 18c205 0 364 190 364 391c0 153 -107 272 -267 272c-205 0 -364 -189 -364 -391
c0 -152 108 -272 267 -272z" />
    <glyph glyph-name="odieresis" unicode="&#xf6;" horiz-adv-x="626" 
d="M447 606l17 62h49l-17 -62h-49zM304 606l17 62h49l-17 -62h-49zM278 -12c-134 0 -228 95 -228 224c0 152 127 304 297 304c134 0 229 -95 229 -224c0 -154 -130 -304 -298 -304zM281 18c145 0 260 133 260 271c0 116 -79 197 -196 197c-147 0 -261 -135 -261 -271
c0 -116 79 -197 197 -197z" />
    <glyph glyph-name="OE" unicode="&#x152;" horiz-adv-x="1161" 
d="M447 0c-113 0 -214 32 -278 95c-48 49 -76 114 -76 199c0 107 39 203 109 273c84 84 211 133 357 133h654l-9 -31h-442l-81 -301h399l-8 -31h-400l-82 -306h448l-8 -31h-583zM445 31h112l171 638h-174c-134 0 -248 -44 -327 -123c-63 -64 -100 -152 -100 -250
c0 -77 26 -136 69 -179c56 -57 145 -86 249 -86z" />
    <glyph glyph-name="oe" unicode="&#x153;" horiz-adv-x="1065" 
d="M568 242c-3 -14 -4 -28 -4 -42c0 -110 74 -182 189 -182c63 0 125 24 180 70l20 -23c-59 -50 -129 -77 -199 -77c-120 0 -201 68 -216 172c-46 -94 -141 -172 -264 -172c-132 0 -224 95 -224 224c0 152 127 304 297 304c120 0 203 -77 219 -180c45 99 137 180 255 180
c136 0 195 -95 195 -196c-1 -28 -5 -54 -13 -78h-435zM573 271h404c3 14 5 30 5 49c0 85 -46 166 -161 166c-121 0 -220 -98 -248 -215zM278 18c145 0 263 133 263 269c0 118 -79 199 -196 199c-147 0 -261 -135 -261 -271c0 -116 76 -197 194 -197z" />
    <glyph glyph-name="Ograve" unicode="&#xd2;" horiz-adv-x="841" 
d="M477 879l68 -107h-24l-81 88zM397 -12c-177 0 -300 133 -300 302c0 218 177 422 399 422c178 0 301 -133 301 -302c0 -218 -178 -422 -400 -422zM398 18c205 0 364 190 364 391c0 153 -107 272 -267 272c-205 0 -364 -189 -364 -391c0 -152 108 -272 267 -272z" />
    <glyph glyph-name="ograve" unicode="&#xf2;" horiz-adv-x="626" 
d="M278 -12c-134 0 -228 95 -228 224c0 152 127 304 297 304c134 0 229 -95 229 -224c0 -154 -130 -304 -298 -304zM281 18c145 0 260 133 260 271c0 116 -79 197 -196 197c-147 0 -261 -135 -261 -271c0 -116 79 -197 197 -197zM376 595l-73 102l40 19l55 -121h-22z" />
    <glyph glyph-name="Ohungarumlaut" unicode="&#x150;" horiz-adv-x="841" 
d="M397 -12c-177 0 -300 133 -300 302c0 218 177 422 399 422c178 0 301 -133 301 -302c0 -218 -178 -422 -400 -422zM398 18c205 0 364 190 364 391c0 153 -107 272 -267 272c-205 0 -364 -189 -364 -391c0 -152 108 -272 267 -272zM449 772l125 107l37 -19l-129 -88h-33z
M577 772l126 107l37 -19l-129 -88h-34z" />
    <glyph glyph-name="ohungarumlaut" unicode="&#x151;" horiz-adv-x="626" 
d="M436 595l119 121l33 -19l-126 -102h-26zM302 595l119 121l33 -19l-126 -102h-26zM278 -12c-134 0 -228 95 -228 224c0 152 127 304 297 304c134 0 229 -95 229 -224c0 -154 -130 -304 -298 -304zM281 18c145 0 260 133 260 271c0 116 -79 197 -196 197
c-147 0 -261 -135 -261 -271c0 -116 79 -197 197 -197z" />
    <glyph glyph-name="Omacron" unicode="&#x14c;" horiz-adv-x="841" 
d="M413 798l9 32h287l-8 -32h-288zM397 -12c-177 0 -300 133 -300 302c0 218 177 422 399 422c178 0 301 -133 301 -302c0 -218 -178 -422 -400 -422zM398 18c205 0 364 190 364 391c0 153 -107 272 -267 272c-205 0 -364 -189 -364 -391c0 -152 108 -272 267 -272z" />
    <glyph glyph-name="omacron" unicode="&#x14d;" horiz-adv-x="626" 
d="M266 621l8 30h278l-8 -30h-278zM278 -12c-134 0 -228 95 -228 224c0 152 127 304 297 304c134 0 229 -95 229 -224c0 -154 -130 -304 -298 -304zM281 18c145 0 260 133 260 271c0 116 -79 197 -196 197c-147 0 -261 -135 -261 -271c0 -116 79 -197 197 -197z" />
    <glyph glyph-name="Oslash" unicode="&#xd8;" horiz-adv-x="841" 
d="M396 -12c-99 0 -181 41 -235 107l-120 -100h-44l148 124c-32 48 -50 107 -50 171c0 218 178 422 400 422c98 0 179 -41 233 -106l118 99h44l-145 -121c32 -49 51 -109 51 -174c0 -218 -178 -422 -400 -422zM170 140l534 446c-47 59 -121 95 -210 95
c-205 0 -364 -189 -364 -391c0 -55 14 -107 40 -150zM397 18c205 0 364 190 364 391c0 57 -15 110 -41 154l-534 -447c47 -60 121 -98 211 -98z" />
    <glyph glyph-name="oslash" unicode="&#xf8;" horiz-adv-x="626" 
d="M278 -12c-73 0 -133 28 -174 74l-82 -67h-43l108 89c-24 35 -37 79 -37 128c0 152 127 304 297 304c74 0 135 -28 175 -75l93 76h43l-119 -97c24 -36 37 -79 37 -128c0 -154 -130 -304 -298 -304zM113 105l385 316c-35 41 -88 65 -153 65c-147 0 -261 -135 -261 -271
c0 -42 10 -79 29 -110zM281 18c145 0 260 133 260 271c0 42 -9 79 -28 110l-384 -316c34 -41 87 -65 152 -65z" />
    <glyph glyph-name="Oslashacute" unicode="&#x1fe;" horiz-adv-x="841" 
d="M396 -12c-99 0 -181 41 -235 107l-120 -100h-44l148 124c-32 48 -50 107 -50 171c0 218 178 422 400 422c98 0 179 -41 233 -106l118 99h44l-145 -121c32 -49 51 -109 51 -174c0 -218 -178 -422 -400 -422zM170 140l534 446c-47 59 -121 95 -210 95
c-205 0 -364 -189 -364 -391c0 -55 14 -107 40 -150zM397 18c205 0 364 190 364 391c0 57 -15 110 -41 154l-534 -447c47 -60 121 -98 211 -98zM527 772l125 107l38 -19l-130 -88h-33z" />
    <glyph glyph-name="oslashacute" unicode="&#x1ff;" horiz-adv-x="626" 
d="M278 -12c-73 0 -133 28 -174 74l-82 -67h-43l108 89c-24 35 -37 79 -37 128c0 152 127 304 297 304c74 0 135 -28 175 -75l93 76h43l-119 -97c24 -36 37 -79 37 -128c0 -154 -130 -304 -298 -304zM113 105l385 316c-35 41 -88 65 -153 65c-147 0 -261 -135 -261 -271
c0 -42 10 -79 29 -110zM281 18c145 0 260 133 260 271c0 42 -9 79 -28 110l-384 -316c34 -41 87 -65 152 -65zM378 595l119 121l40 -19l-129 -102h-30z" />
    <glyph glyph-name="Otilde" unicode="&#xd5;" horiz-adv-x="841" 
d="M434 772l-22 6c25 57 55 79 89 79c41 0 86 -46 121 -46c24 0 42 13 64 53l21 -6c-24 -57 -54 -79 -88 -79c-41 0 -87 46 -121 46c-24 0 -42 -13 -64 -53zM397 -12c-177 0 -300 133 -300 302c0 218 177 422 399 422c178 0 301 -133 301 -302c0 -218 -178 -422 -400 -422z
M398 18c205 0 364 190 364 391c0 153 -107 272 -267 272c-205 0 -364 -189 -364 -391c0 -152 108 -272 267 -272z" />
    <glyph glyph-name="otilde" unicode="&#xf5;" horiz-adv-x="626" 
d="M278 -12c-134 0 -228 95 -228 224c0 152 127 304 297 304c134 0 229 -95 229 -224c0 -154 -130 -304 -298 -304zM281 18c145 0 260 133 260 271c0 116 -79 197 -196 197c-147 0 -261 -135 -261 -271c0 -116 79 -197 197 -197zM282 595l-22 5c26 64 54 86 89 86
c41 0 88 -52 123 -52c24 0 41 14 64 58l21 -5c-26 -64 -54 -85 -89 -85c-41 0 -87 51 -122 51c-24 0 -42 -13 -64 -58z" />
    <glyph glyph-name="Racute" unicode="&#x154;" horiz-adv-x="720" 
d="M37 0l188 700h250c146 0 230 -64 230 -175c0 -55 -20 -106 -59 -144c-45 -45 -118 -75 -214 -79l157 -302h-39l-154 299h-245l-80 -299h-34zM159 330h242c106 0 179 29 221 71c33 33 49 76 49 121c0 93 -69 147 -198 147h-223zM435 765l125 107l38 -19l-130 -88h-33z" />
    <glyph glyph-name="racute" unicode="&#x155;" horiz-adv-x="362" 
d="M255 595l119 121l40 -19l-129 -102h-30zM25 0l135 504h32l-40 -152c65 102 161 165 255 162l-9 -33h-2c-101 0 -237 -100 -276 -245l-63 -236h-32z" />
    <glyph glyph-name="Rcaron" unicode="&#x158;" horiz-adv-x="720" 
d="M608 866l-131 -101h-29l-79 101h32l67 -69l104 69h36zM37 0l188 700h250c146 0 230 -64 230 -175c0 -55 -20 -106 -59 -144c-45 -45 -118 -75 -214 -79l157 -302h-39l-154 299h-245l-80 -299h-34zM159 330h242c106 0 179 29 221 71c33 33 49 76 49 121
c0 93 -69 147 -198 147h-223z" />
    <glyph glyph-name="rcaron" unicode="&#x159;" horiz-adv-x="362" 
d="M416 711l-136 -116h-23l-72 116h27l63 -79l110 79h31zM25 0l135 504h32l-40 -152c65 102 161 165 255 162l-9 -33h-2c-101 0 -237 -100 -276 -245l-63 -236h-32z" />
    <glyph glyph-name="Rcommaaccent" unicode="&#x156;" horiz-adv-x="720" 
d="M186 -194l-2 17c28 8 43 23 51 51h-24l16 57h50l-11 -40c-15 -56 -37 -76 -80 -85zM37 0l188 700h250c146 0 230 -64 230 -175c0 -55 -20 -106 -59 -144c-45 -45 -118 -75 -214 -79l157 -302h-39l-154 299h-245l-80 -299h-34zM159 330h242c106 0 179 29 221 71
c33 33 49 76 49 121c0 93 -69 147 -198 147h-223z" />
    <glyph glyph-name="rcommaaccent" unicode="&#x157;" horiz-adv-x="362" 
d="M-32 -199l-2 17c28 8 43 23 51 51h-24l16 57h50l-11 -40c-15 -56 -37 -76 -80 -85zM25 0l135 504h32l-40 -152c65 102 161 165 255 162l-9 -33h-2c-101 0 -237 -100 -276 -245l-63 -236h-32z" />
    <glyph glyph-name="Sacute" unicode="&#x15a;" horiz-adv-x="639" 
d="M301 -10c-118 0 -219 51 -279 132l26 19c59 -77 148 -120 257 -120c134 0 214 80 214 164c0 82 -71 118 -173 158c-114 44 -192 84 -192 177c0 99 91 190 246 190c101 0 185 -41 240 -103l-26 -22c-52 59 -127 94 -217 94c-132 0 -209 -77 -209 -156
c0 -77 74 -112 174 -150c110 -42 191 -86 191 -185c0 -101 -91 -198 -252 -198zM419 772l125 107l38 -19l-130 -88h-33z" />
    <glyph glyph-name="sacute" unicode="&#x15b;" horiz-adv-x="492" 
d="M307 595l119 121l40 -19l-129 -102h-30zM212 -10c-75 0 -155 29 -210 83l23 23c54 -51 119 -76 190 -76c90 0 151 53 151 109c0 55 -38 80 -124 113c-85 32 -142 65 -142 132c0 73 69 140 183 140c59 0 131 -24 180 -66l-21 -24c-46 38 -107 60 -161 60
c-96 0 -147 -53 -147 -105c0 -53 43 -77 125 -109c89 -35 141 -68 141 -137c0 -74 -75 -143 -188 -143z" />
    <glyph glyph-name="Scaron" unicode="&#x160;" horiz-adv-x="639" 
d="M301 -10c-118 0 -219 51 -279 132l26 19c59 -77 148 -120 257 -120c134 0 214 80 214 164c0 82 -71 118 -173 158c-114 44 -192 84 -192 177c0 99 91 190 246 190c101 0 185 -41 240 -103l-26 -22c-52 59 -127 94 -217 94c-132 0 -209 -77 -209 -156
c0 -77 74 -112 174 -150c110 -42 191 -86 191 -185c0 -101 -91 -198 -252 -198zM593 873l-131 -101h-29l-79 101h32l67 -69l104 69h36z" />
    <glyph glyph-name="scaron" unicode="&#x161;" horiz-adv-x="492" 
d="M468 711l-136 -116h-23l-72 116h27l63 -79l110 79h31zM212 -10c-75 0 -155 29 -210 83l23 23c54 -51 119 -76 190 -76c90 0 151 53 151 109c0 55 -38 80 -124 113c-85 32 -142 65 -142 132c0 73 69 140 183 140c59 0 131 -24 180 -66l-21 -24c-46 38 -107 60 -161 60
c-96 0 -147 -53 -147 -105c0 -53 43 -77 125 -109c89 -35 141 -68 141 -137c0 -74 -75 -143 -188 -143z" />
    <glyph glyph-name="Scedilla" unicode="&#x15e;" horiz-adv-x="639" 
d="M175 -144l-32 18l111 119c-98 11 -180 59 -232 129l26 19c59 -77 148 -120 257 -120c134 0 214 80 214 164c0 82 -71 118 -173 158c-114 44 -192 84 -192 177c0 99 91 190 246 190c101 0 185 -41 240 -103l-26 -22c-52 59 -127 94 -217 94c-132 0 -209 -77 -209 -156
c0 -77 74 -112 174 -150c110 -42 191 -86 191 -185c0 -101 -91 -198 -252 -198c-7 0 -14 0 -21 1z" />
    <glyph glyph-name="scedilla" unicode="&#x15f;" horiz-adv-x="492" 
d="M90 -144l-32 18l111 119c-62 9 -123 36 -167 80l23 23c54 -51 119 -76 190 -76c90 0 151 53 151 109c0 55 -38 80 -124 113c-85 32 -142 65 -142 132c0 73 69 140 183 140c59 0 131 -24 180 -66l-21 -24c-46 38 -107 60 -161 60c-96 0 -147 -53 -147 -105
c0 -53 43 -77 125 -109c89 -35 141 -68 141 -137c0 -74 -75 -143 -188 -143c-6 0 -12 0 -17 1z" />
    <glyph glyph-name="Scommaaccent" unicode="&#x218;" horiz-adv-x="639" 
d="M153 -202l-2 17c28 8 43 23 51 51h-24l16 57h50l-11 -40c-15 -56 -37 -76 -80 -85zM301 -10c-118 0 -219 51 -279 132l26 19c59 -77 148 -120 257 -120c134 0 214 80 214 164c0 82 -71 118 -173 158c-114 44 -192 84 -192 177c0 99 91 190 246 190
c101 0 185 -41 240 -103l-26 -22c-52 59 -127 94 -217 94c-132 0 -209 -77 -209 -156c0 -77 74 -112 174 -150c110 -42 191 -86 191 -185c0 -101 -91 -198 -252 -198z" />
    <glyph glyph-name="scommaaccent" unicode="&#x219;" horiz-adv-x="492" 
d="M85 -202l-2 17c28 8 43 23 51 51h-24l16 57h50l-11 -40c-15 -56 -37 -76 -80 -85zM212 -10c-75 0 -155 29 -210 83l23 23c54 -51 119 -76 190 -76c90 0 151 53 151 109c0 55 -38 80 -124 113c-85 32 -142 65 -142 132c0 73 69 140 183 140c59 0 131 -24 180 -66l-21 -24
c-46 38 -107 60 -161 60c-96 0 -147 -53 -147 -105c0 -53 43 -77 125 -109c89 -35 141 -68 141 -137c0 -74 -75 -143 -188 -143z" />
    <glyph glyph-name="Tcaron" unicode="&#x164;" horiz-adv-x="595" 
d="M580 866l-131 -101h-29l-79 101h32l67 -69l104 69h36zM208 0l179 669h-249l8 31h533l-8 -31h-250l-179 -669h-34z" />
    <glyph glyph-name="tcaron" unicode="&#x165;" horiz-adv-x="382" 
d="M346 591l56 149h39v-2l-76 -147h-19zM196 -9c-71 0 -114 32 -114 96c0 15 3 33 7 50l90 338h-77l8 29h77l45 169h33l-46 -169h182l-8 -29h-181l-91 -339c-4 -16 -7 -33 -7 -46c0 -47 32 -69 88 -69c23 0 46 4 73 15l-9 -33c-24 -9 -44 -12 -70 -12z" />
    <glyph glyph-name="Tcommaaccent" unicode="&#x162;" horiz-adv-x="595" 
d="M143 -199l-2 17c28 8 43 23 51 51h-24l16 57h50l-11 -40c-15 -56 -37 -76 -80 -85zM208 0l179 669h-249l8 31h533l-8 -31h-250l-179 -669h-34z" />
    <glyph glyph-name="tcommaaccent" unicode="&#x163;" horiz-adv-x="382" 
d="M71 -202l-2 17c28 8 43 23 51 51h-24l16 57h50l-11 -40c-15 -56 -37 -76 -80 -85zM196 -9c-71 0 -114 32 -114 96c0 15 3 33 7 50l90 338h-77l8 29h77l45 169h33l-46 -169h182l-8 -29h-181l-91 -339c-4 -16 -7 -33 -7 -46c0 -47 32 -69 88 -69c23 0 46 4 73 15l-9 -33
c-24 -9 -44 -12 -70 -12z" />
    <glyph glyph-name="Thorn" unicode="&#xde;" horiz-adv-x="669" 
d="M37 0l188 700h33l-35 -132h181c89 0 153 -21 195 -63c31 -30 47 -73 47 -124c0 -149 -127 -243 -336 -243h-202l-37 -138h-34zM116 169h196c193 0 300 86 300 210c0 43 -12 77 -39 104c-35 35 -91 54 -170 54h-188z" />
    <glyph glyph-name="thorn" unicode="&#xfe;" horiz-adv-x="652" 
d="M-18 -160l239 890h32l-92 -342c36 57 123 128 229 128c121 0 206 -92 206 -214c0 -162 -121 -314 -284 -314c-128 0 -196 85 -213 166l-85 -314h-32zM311 18c150 0 251 143 251 280c0 109 -72 188 -175 188c-150 0 -269 -150 -269 -272c0 -111 76 -196 193 -196z" />
    <glyph glyph-name="Uacute" unicode="&#xda;" horiz-adv-x="754" 
d="M483 760l125 107l38 -19l-130 -88h-33zM346 -11c-150 0 -249 79 -249 222c0 37 6 75 17 117l99 372h34l-102 -384c-10 -35 -14 -71 -14 -102c0 -124 83 -194 217 -194c67 0 134 24 186 77c42 42 79 108 106 206l106 397h34l-109 -405c-27 -102 -65 -171 -113 -219
c-58 -58 -133 -87 -212 -87z" />
    <glyph glyph-name="uacute" unicode="&#xfa;" horiz-adv-x="607" 
d="M362 592l119 121l40 -19l-129 -102h-30zM236 -12c-109 0 -169 66 -169 163c0 25 5 53 12 81l73 272h32l-73 -273c-7 -26 -11 -53 -11 -77c0 -81 47 -136 143 -136s198 79 231 205l75 281h33l-135 -504h-32l31 115c-43 -66 -110 -127 -210 -127z" />
    <glyph glyph-name="Ubreve" unicode="&#x16c;" horiz-adv-x="754" 
d="M509 759c-76 0 -113 37 -106 90h27c1 -35 21 -59 83 -59c61 0 98 25 118 59h29c-22 -53 -76 -90 -151 -90zM346 -11c-150 0 -249 79 -249 222c0 37 6 75 17 117l99 372h34l-102 -384c-10 -35 -14 -71 -14 -102c0 -124 83 -194 217 -194c67 0 134 24 186 77
c42 42 79 108 106 206l106 397h34l-109 -405c-27 -102 -65 -171 -113 -219c-58 -58 -133 -87 -212 -87z" />
    <glyph glyph-name="ubreve" unicode="&#x16d;" horiz-adv-x="607" 
d="M236 -12c-109 0 -169 66 -169 163c0 25 5 53 12 81l73 272h32l-73 -273c-7 -26 -11 -53 -11 -77c0 -81 47 -136 143 -136s198 79 231 205l75 281h33l-135 -504h-32l31 115c-43 -66 -110 -127 -210 -127zM385 591c-73 0 -112 41 -102 104h24c-1 -45 22 -74 83 -74
c62 0 98 31 122 74h27c-24 -62 -78 -104 -154 -104z" />
    <glyph glyph-name="Ucircumflex" unicode="&#xdb;" horiz-adv-x="754" 
d="M346 -11c-150 0 -249 79 -249 222c0 37 6 75 17 117l99 372h34l-102 -384c-10 -35 -14 -71 -14 -102c0 -124 83 -194 217 -194c67 0 134 24 186 77c42 42 79 108 106 206l106 397h34l-109 -405c-27 -102 -65 -171 -113 -219c-58 -58 -133 -87 -212 -87zM379 760l132 101
h29l78 -101h-31l-67 69l-105 -69h-36z" />
    <glyph glyph-name="ucircumflex" unicode="&#xfb;" horiz-adv-x="607" 
d="M264 592l135 116h23l72 -116h-26l-64 79l-109 -79h-31zM236 -12c-109 0 -169 66 -169 163c0 25 5 53 12 81l73 272h32l-73 -273c-7 -26 -11 -53 -11 -77c0 -81 47 -136 143 -136s198 79 231 205l75 281h33l-135 -504h-32l31 115c-43 -66 -110 -127 -210 -127z" />
    <glyph glyph-name="Udieresis" unicode="&#xdc;" horiz-adv-x="754" 
d="M560 771l16 61h52l-16 -61h-52zM405 771l16 61h53l-16 -61h-53zM346 -11c-150 0 -249 79 -249 222c0 37 6 75 17 117l99 372h34l-102 -384c-10 -35 -14 -71 -14 -102c0 -124 83 -194 217 -194c67 0 134 24 186 77c42 42 79 108 106 206l106 397h34l-109 -405
c-27 -102 -65 -171 -113 -219c-58 -58 -133 -87 -212 -87z" />
    <glyph glyph-name="udieresis" unicode="&#xfc;" horiz-adv-x="607" 
d="M432 603l17 62h49l-17 -62h-49zM289 603l17 62h49l-17 -62h-49zM236 -12c-109 0 -169 66 -169 163c0 25 5 53 12 81l73 272h32l-73 -273c-7 -26 -11 -53 -11 -77c0 -81 47 -136 143 -136s198 79 231 205l75 281h33l-135 -504h-32l31 115c-43 -66 -110 -127 -210 -127z
" />
    <glyph glyph-name="Ugrave" unicode="&#xd9;" horiz-adv-x="754" 
d="M432 867l68 -107h-24l-81 88zM346 -11c-150 0 -249 79 -249 222c0 37 6 75 17 117l99 372h34l-102 -384c-10 -35 -14 -71 -14 -102c0 -124 83 -194 217 -194c67 0 134 24 186 77c42 42 79 108 106 206l106 397h34l-109 -405c-27 -102 -65 -171 -113 -219
c-58 -58 -133 -87 -212 -87z" />
    <glyph glyph-name="ugrave" unicode="&#xf9;" horiz-adv-x="607" 
d="M236 -12c-109 0 -169 66 -169 163c0 25 5 53 12 81l73 272h32l-73 -273c-7 -26 -11 -53 -11 -77c0 -81 47 -136 143 -136s198 79 231 205l75 281h33l-135 -504h-32l31 115c-43 -66 -110 -127 -210 -127zM361 592l-73 102l40 19l55 -121h-22z" />
    <glyph glyph-name="Uhungarumlaut" unicode="&#x170;" horiz-adv-x="754" 
d="M346 -11c-150 0 -249 79 -249 222c0 37 6 75 17 117l99 372h34l-102 -384c-10 -35 -14 -71 -14 -102c0 -124 83 -194 217 -194c67 0 134 24 186 77c42 42 79 108 106 206l106 397h34l-109 -405c-27 -102 -65 -171 -113 -219c-58 -58 -133 -87 -212 -87zM404 760l125 107
l37 -19l-129 -88h-33zM532 760l126 107l37 -19l-129 -88h-34z" />
    <glyph glyph-name="uhungarumlaut" unicode="&#x171;" horiz-adv-x="607" 
d="M236 -12c-109 0 -169 66 -169 163c0 25 5 53 12 81l73 272h32l-73 -273c-7 -26 -11 -53 -11 -77c0 -81 47 -136 143 -136s198 79 231 205l75 281h33l-135 -504h-32l31 115c-43 -66 -110 -127 -210 -127zM421 592l119 121l33 -19l-126 -102h-26zM287 592l119 121l33 -19
l-126 -102h-26z" />
    <glyph glyph-name="Umacron" unicode="&#x16a;" horiz-adv-x="754" 
d="M368 786l9 32h287l-8 -32h-288zM346 -11c-150 0 -249 79 -249 222c0 37 6 75 17 117l99 372h34l-102 -384c-10 -35 -14 -71 -14 -102c0 -124 83 -194 217 -194c67 0 134 24 186 77c42 42 79 108 106 206l106 397h34l-109 -405c-27 -102 -65 -171 -113 -219
c-58 -58 -133 -87 -212 -87z" />
    <glyph glyph-name="umacron" unicode="&#x16b;" horiz-adv-x="607" 
d="M236 -12c-109 0 -169 66 -169 163c0 25 5 53 12 81l73 272h32l-73 -273c-7 -26 -11 -53 -11 -77c0 -81 47 -136 143 -136s198 79 231 205l75 281h33l-135 -504h-32l31 115c-43 -66 -110 -127 -210 -127zM250 618l8 30h278l-8 -30h-278z" />
    <glyph glyph-name="Uogonek" unicode="&#x172;" horiz-adv-x="754" 
d="M346 -11c-6 0 -11 1 -17 1c-43 -31 -65 -58 -65 -84c0 -25 22 -39 70 -43l-6 -24c-64 2 -99 25 -99 62c0 33 26 62 67 91c-122 16 -199 92 -199 219c0 37 6 75 17 117l99 372h34l-102 -384c-10 -35 -14 -71 -14 -102c0 -124 83 -194 217 -194c67 0 134 24 186 77
c42 42 79 108 106 206l106 397h34l-109 -405c-27 -102 -65 -171 -113 -219c-58 -58 -133 -87 -212 -87z" />
    <glyph glyph-name="uogonek" unicode="&#x173;" horiz-adv-x="607" 
d="M236 -12c-109 0 -169 66 -169 163c0 25 5 53 12 81l73 272h32l-73 -273c-7 -26 -11 -53 -11 -77c0 -81 47 -136 143 -136s198 79 231 205l75 281h33l-135 -504h-4c-54 -35 -81 -65 -81 -94c0 -25 22 -39 70 -43l-6 -24c-64 2 -99 25 -99 62c0 39 36 73 90 106l29 108
c-43 -66 -110 -127 -210 -127z" />
    <glyph glyph-name="Uring" unicode="&#x16e;" horiz-adv-x="754" 
d="M346 -11c-150 0 -249 79 -249 222c0 37 6 75 17 117l99 372h34l-102 -384c-10 -35 -14 -71 -14 -102c0 -124 83 -194 217 -194c67 0 134 24 186 77c42 42 79 108 106 206l106 397h34l-109 -405c-27 -102 -65 -171 -113 -219c-58 -58 -133 -87 -212 -87zM516 749
c-58 0 -93 34 -93 80c0 59 58 101 117 101c58 0 94 -34 94 -80c0 -59 -58 -101 -118 -101zM519 771c44 0 88 32 88 77c0 34 -25 60 -70 60c-43 0 -87 -32 -87 -78c0 -34 26 -59 69 -59z" />
    <glyph glyph-name="uring" unicode="&#x16f;" horiz-adv-x="607" 
d="M396 583c-55 0 -93 37 -93 87c0 58 54 104 110 104c55 0 93 -37 93 -87c0 -58 -54 -104 -110 -104zM397 605c43 0 84 35 84 81c0 38 -26 66 -69 66s-84 -36 -84 -81c0 -38 26 -66 69 -66zM236 -12c-109 0 -169 66 -169 163c0 25 5 53 12 81l73 272h32l-73 -273
c-7 -26 -11 -53 -11 -77c0 -81 47 -136 143 -136s198 79 231 205l75 281h33l-135 -504h-32l31 115c-43 -66 -110 -127 -210 -127z" />
    <glyph glyph-name="Wacute" unicode="&#x1e82;" horiz-adv-x="1058" 
d="M637 765l125 107l38 -19l-130 -88h-33zM216 -5l-60 705h34l53 -655l387 657h26l43 -657l397 655h37l-432 -705h-28l-44 647l-385 -647h-28z" />
    <glyph glyph-name="wacute" unicode="&#x1e83;" horiz-adv-x="821" 
d="M474 595l119 121l40 -19l-129 -102h-30zM150 -4l-45 508h33l37 -460l282 463h27l33 -463l281 460h36l-314 -508h-28l-35 458l-280 -458h-27z" />
    <glyph glyph-name="Wcircumflex" unicode="&#x174;" horiz-adv-x="1058" 
d="M216 -5l-60 705h34l53 -655l387 657h26l43 -657l397 655h37l-432 -705h-28l-44 647l-385 -647h-28zM533 765l132 101h29l78 -101h-31l-67 69l-105 -69h-36z" />
    <glyph glyph-name="wcircumflex" unicode="&#x175;" horiz-adv-x="821" 
d="M375 595l135 116h23l72 -116h-26l-64 79l-109 -79h-31zM150 -4l-45 508h33l37 -460l282 463h27l33 -463l281 460h36l-314 -508h-28l-35 458l-280 -458h-27z" />
    <glyph glyph-name="Wdieresis" unicode="&#x1e84;" horiz-adv-x="1058" 
d="M714 776l16 61h52l-16 -61h-52zM559 776l16 61h53l-16 -61h-53zM216 -5l-60 705h34l53 -655l387 657h26l43 -657l397 655h37l-432 -705h-28l-44 647l-385 -647h-28z" />
    <glyph glyph-name="wdieresis" unicode="&#x1e85;" horiz-adv-x="821" 
d="M544 606l17 62h49l-17 -62h-49zM401 606l17 62h49l-17 -62h-49zM150 -4l-45 508h33l37 -460l282 463h27l33 -463l281 460h36l-314 -508h-28l-35 458l-280 -458h-27z" />
    <glyph glyph-name="Wgrave" unicode="&#x1e80;" horiz-adv-x="1058" 
d="M586 872l68 -107h-24l-81 88zM216 -5l-60 705h34l53 -655l387 657h26l43 -657l397 655h37l-432 -705h-28l-44 647l-385 -647h-28z" />
    <glyph glyph-name="wgrave" unicode="&#x1e81;" horiz-adv-x="821" 
d="M150 -4l-45 508h33l37 -460l282 463h27l33 -463l281 460h36l-314 -508h-28l-35 458l-280 -458h-27zM472 595l-73 102l40 19l55 -121h-22z" />
    <glyph glyph-name="Yacute" unicode="&#xdd;" horiz-adv-x="666" 
d="M242 0l78 290l-183 410h36l170 -384l377 384h45l-413 -418l-76 -282h-34zM433 760l125 107l38 -19l-130 -88h-33z" />
    <glyph glyph-name="yacute" unicode="&#xfd;" horiz-adv-x="571" 
d="M26 -163c-43 0 -76 13 -101 30l18 26c22 -16 53 -27 85 -27c50 0 99 25 175 133l-108 505h34l98 -473l326 473h38l-358 -514c-89 -127 -144 -153 -207 -153zM334 592l119 121l40 -19l-129 -102h-30z" />
    <glyph glyph-name="Ycircumflex" unicode="&#x176;" horiz-adv-x="666" 
d="M242 0l78 290l-183 410h36l170 -384l377 384h45l-413 -418l-76 -282h-34zM329 760l132 101h29l78 -101h-31l-67 69l-105 -69h-36z" />
    <glyph glyph-name="ycircumflex" unicode="&#x177;" horiz-adv-x="571" 
d="M26 -163c-43 0 -76 13 -101 30l18 26c22 -16 53 -27 85 -27c50 0 99 25 175 133l-108 505h34l98 -473l326 473h38l-358 -514c-89 -127 -144 -153 -207 -153zM235 592l135 116h23l72 -116h-26l-64 79l-109 -79h-31z" />
    <glyph glyph-name="Ydieresis" unicode="&#x178;" horiz-adv-x="666" 
d="M242 0l78 290l-183 410h36l170 -384l377 384h45l-413 -418l-76 -282h-34zM510 771l16 61h52l-16 -61h-52zM355 771l16 61h53l-16 -61h-53z" />
    <glyph glyph-name="ydieresis" unicode="&#xff;" horiz-adv-x="571" 
d="M26 -163c-43 0 -76 13 -101 30l18 26c22 -16 53 -27 85 -27c50 0 99 25 175 133l-108 505h34l98 -473l326 473h38l-358 -514c-89 -127 -144 -153 -207 -153zM403 603l17 62h49l-17 -62h-49zM260 603l17 62h49l-17 -62h-49z" />
    <glyph glyph-name="Ygrave" unicode="&#x1ef2;" horiz-adv-x="666" 
d="M242 0l78 290l-183 410h36l170 -384l377 384h45l-413 -418l-76 -282h-34zM382 867l68 -107h-24l-81 88z" />
    <glyph glyph-name="ygrave" unicode="&#x1ef3;" horiz-adv-x="571" 
d="M26 -163c-43 0 -76 13 -101 30l18 26c22 -16 53 -27 85 -27c50 0 99 25 175 133l-108 505h34l98 -473l326 473h38l-358 -514c-89 -127 -144 -153 -207 -153zM333 592l-73 102l40 19l55 -121h-22z" />
    <glyph glyph-name="Zacute" unicode="&#x179;" horiz-adv-x="666" 
d="M-11 0l5 19l664 650h-473l9 31h526l-6 -19l-664 -650h489l-8 -31h-542zM429 765l125 107l38 -19l-130 -88h-33z" />
    <glyph glyph-name="zacute" unicode="&#x17a;" horiz-adv-x="511" 
d="M310 595l119 121l40 -19l-129 -102h-30zM-26 0l5 18l494 458h-359l8 28h410l-5 -18l-494 -458h374l-8 -28h-425z" />
    <glyph glyph-name="Zcaron" unicode="&#x17d;" horiz-adv-x="666" 
d="M602 866l-131 -101h-29l-79 101h32l67 -69l104 69h36zM-11 0l5 19l664 650h-473l9 31h526l-6 -19l-664 -650h489l-8 -31h-542z" />
    <glyph glyph-name="zcaron" unicode="&#x17e;" horiz-adv-x="511" 
d="M471 711l-136 -116h-23l-72 116h27l63 -79l110 79h31zM-26 0l5 18l494 458h-359l8 28h410l-5 -18l-494 -458h374l-8 -28h-425z" />
    <glyph glyph-name="Zdotaccent" unicode="&#x17b;" horiz-adv-x="666" 
d="M427 776l16 61h53l-16 -61h-53zM-11 0l5 19l664 650h-473l9 31h526l-6 -19l-664 -650h489l-8 -31h-542z" />
    <glyph glyph-name="zdotaccent" unicode="&#x17c;" horiz-adv-x="511" 
d="M-26 0l5 18l494 458h-359l8 28h410l-5 -18l-494 -458h374l-8 -28h-425zM309 606l17 64h48l-17 -64h-48z" />
    <glyph glyph-name="schwa" unicode="&#x259;" horiz-adv-x="585" 
d="M497 262c2 14 3 28 3 42c0 110 -73 182 -188 182c-64 0 -125 -24 -181 -70l-19 23c59 50 127 77 200 77c134 0 223 -84 223 -210c0 -162 -131 -318 -292 -318c-136 0 -194 95 -194 196c1 28 4 54 12 78h436zM492 233h-405c-2 -14 -5 -30 -5 -49c0 -85 47 -166 162 -166
c121 0 219 98 248 215z" />
    <glyph glyph-name="germandbls" unicode="&#xdf;" horiz-adv-x="591" 
d="M207 -2l8 30c173 0 271 76 271 173c0 85 -69 131 -185 153l8 28c144 29 230 88 230 196c0 71 -51 129 -142 129c-100 0 -173 -83 -206 -207l-134 -500h-32l136 509c20 71 48 124 86 162c40 40 93 65 151 65c103 0 176 -65 176 -158c0 -123 -101 -183 -215 -211
c85 -21 161 -69 161 -166c0 -117 -120 -205 -313 -203z" />
    <glyph glyph-name="zero" unicode="0" horiz-adv-x="708" 
d="M318 -12c-154 0 -232 113 -232 263c0 228 149 461 356 461c154 0 233 -113 233 -263c0 -228 -150 -461 -357 -461zM320 19c183 0 320 218 320 429c0 132 -65 233 -200 233c-183 0 -320 -218 -320 -429c0 -132 65 -233 200 -233z" />
    <glyph glyph-name="one" unicode="1" horiz-adv-x="321" 
d="M98 0l179 666l-147 -54l-3 30l167 63h27l-189 -705h-34z" />
    <glyph glyph-name="two" unicode="2" horiz-adv-x="571" 
d="M-20 0l5 23l425 333c90 72 129 121 129 188c0 74 -59 135 -166 135c-91 0 -156 -49 -207 -105l-24 20c57 63 130 116 232 116c125 0 200 -73 200 -165c0 -78 -45 -134 -144 -212l-386 -301h424l-9 -32h-479z" />
    <glyph glyph-name="three" unicode="3" horiz-adv-x="575" 
d="M236 -11c-116 0 -197 52 -236 132l28 15c38 -72 106 -117 209 -117c131 0 235 75 235 190c0 86 -73 142 -215 142h-26l-7 19l333 298h-389l10 32h436l-7 -24l-329 -297c139 -2 229 -65 229 -168c0 -133 -124 -222 -271 -222z" />
    <glyph glyph-name="three.alt" horiz-adv-x="581" 
d="M247 -12c-103 0 -197 45 -246 123l29 17c46 -71 126 -109 219 -109c136 0 220 81 220 169c0 98 -87 150 -200 150h-59l8 31h63c148 0 259 67 259 172c0 84 -76 139 -179 139c-80 0 -145 -30 -198 -75l-21 23c56 49 131 83 219 83c123 0 214 -68 214 -168
c0 -112 -96 -174 -214 -192c86 -20 143 -80 143 -161c0 -109 -104 -202 -257 -202z" />
    <glyph glyph-name="four" unicode="4" horiz-adv-x="629" 
d="M378 0l48 178h-399l-5 24l547 503h30l-132 -497h114l-8 -30h-114l-48 -178h-33zM72 208h362l118 443z" />
    <glyph glyph-name="five" unicode="5" horiz-adv-x="587" 
d="M248 -12c-115 0 -193 58 -233 127l28 17c39 -65 104 -114 207 -114c140 0 240 96 240 209c0 105 -77 160 -185 160c-53 0 -110 -14 -169 -44l-20 16l112 341h370l-9 -32h-340l-94 -285c42 20 101 35 151 35c128 0 219 -69 219 -190c0 -130 -117 -240 -277 -240z" />
    <glyph glyph-name="six" unicode="6" horiz-adv-x="629" 
d="M308 -12c-64 0 -123 23 -164 63c-37 37 -62 94 -62 171c0 161 58 305 148 394c64 65 139 96 219 96c81 0 148 -34 197 -94l-25 -21c-46 54 -103 84 -174 84c-70 0 -133 -25 -192 -84c-81 -81 -124 -193 -136 -305c33 69 119 139 235 139c142 0 221 -91 221 -194
c0 -134 -114 -249 -267 -249zM310 18c132 0 230 101 230 218c0 87 -62 164 -188 164c-138 0 -234 -102 -234 -199c0 -55 19 -97 51 -129c36 -36 87 -54 141 -54z" />
    <glyph glyph-name="seven" unicode="7" horiz-adv-x="550" 
d="M63 0l492 668h-418l9 32h458l-6 -23l-496 -677h-39z" />
    <glyph glyph-name="eight" unicode="8" horiz-adv-x="631" 
d="M295 -10c-149 0 -252 75 -252 181c0 105 94 182 224 198c-69 24 -118 78 -118 150c0 108 106 191 245 191c125 0 223 -70 223 -169c0 -97 -82 -170 -193 -187c80 -24 140 -86 140 -165c0 -114 -109 -199 -269 -199zM364 373c129 0 218 75 218 166c0 81 -82 140 -189 140
c-122 0 -209 -69 -209 -161c0 -81 77 -145 180 -145zM296 21c144 0 233 71 233 168c0 87 -86 158 -212 158c-142 0 -239 -81 -239 -173c0 -93 89 -153 218 -153z" />
    <glyph glyph-name="nine" unicode="9" horiz-adv-x="629" 
d="M231 -12c-79 0 -149 34 -200 96l26 21c47 -57 105 -87 176 -87c70 0 132 26 191 85c82 81 124 191 137 303c-32 -67 -117 -141 -236 -141c-143 0 -221 92 -221 196c1 135 114 251 268 251c64 0 123 -24 163 -64c37 -37 63 -94 63 -170c0 -161 -59 -305 -148 -395
c-65 -64 -139 -95 -219 -95zM328 296c136 0 233 104 233 203c0 54 -18 96 -51 129c-36 35 -86 53 -141 53c-132 0 -229 -102 -230 -219c0 -88 61 -166 189 -166z" />
    <glyph glyph-name="period" unicode="." horiz-adv-x="191" 
d="M4 0l17 65h48l-17 -65h-48z" />
    <glyph glyph-name="comma" unicode="," horiz-adv-x="191" 
d="M-28 -90l-5 17c34 10 50 36 58 73h-21l17 65h48l-15 -57c-17 -62 -39 -86 -82 -98z" />
    <glyph glyph-name="colon" unicode=":" horiz-adv-x="197" 
d="M125 439l17 65h48l-17 -65h-48zM7 0l18 65h48l-18 -65h-48z" />
    <glyph glyph-name="semicolon" unicode=";" horiz-adv-x="197" 
d="M125 439l17 65h48l-17 -65h-48zM-25 -90l-5 17c34 10 50 36 59 73h-22l18 65h48l-16 -57c-17 -62 -38 -86 -82 -98z" />
    <glyph glyph-name="ellipsis" unicode="&#x2026;" horiz-adv-x="564" 
d="M377 0l17 65h48l-17 -65h-48zM190 0l18 65h48l-18 -65h-48zM4 0l17 65h48l-17 -65h-48z" />
    <glyph glyph-name="periodcentered" unicode="&#xb7;" horiz-adv-x="191" 
d="M74 262l17 65h48l-17 -65h-48z" />
    <glyph glyph-name="bullet" unicode="&#x2022;" horiz-adv-x="447" 
d="M228 235c-55 0 -95 37 -95 98c0 73 59 136 129 136c55 0 95 -37 95 -98c0 -73 -59 -136 -129 -136z" />
    <glyph glyph-name="ampersand" unicode="&#x26;" horiz-adv-x="682" 
d="M580 -11l-89 126c-80 -80 -161 -125 -262 -125c-105 0 -196 63 -196 173c0 133 117 200 256 236c-33 50 -54 96 -54 141c0 99 82 172 183 172c92 0 154 -57 154 -137c0 -92 -82 -153 -234 -194l157 -222c45 49 83 106 122 173l27 -15c-43 -70 -84 -128 -131 -181l92 -130
zM321 404c142 38 218 91 218 170c0 63 -49 108 -122 108c-82 0 -148 -60 -148 -141c0 -43 19 -87 52 -137zM232 20c88 0 169 44 242 118l-168 237c-136 -34 -238 -95 -238 -209c0 -92 72 -146 164 -146z" />
    <glyph glyph-name="exclam" unicode="!" horiz-adv-x="217" 
d="M81 183l105 424l25 93h36l-25 -93l-124 -424h-17zM17 0l17 65h48l-17 -65h-48z" />
    <glyph glyph-name="exclamdown" unicode="&#xa1;" horiz-adv-x="217" 
d="M187 635l18 65h48l-18 -65h-48zM23 0l25 93l123 424h17l-104 -424l-25 -93h-36z" />
    <glyph glyph-name="question" unicode="?" horiz-adv-x="514" 
d="M197 183l33 159l5 4c142 12 259 73 259 191c0 83 -65 141 -167 141c-87 0 -156 -44 -205 -92l-21 22c55 54 128 101 228 101c126 0 200 -76 200 -171c0 -133 -125 -201 -268 -220l-45 -135h-19zM133 0l18 65h48l-18 -65h-48z" />
    <glyph glyph-name="questiondown" unicode="&#xbf;" horiz-adv-x="514" 
d="M367 635l18 65h48l-18 -65h-48zM237 -9c-126 0 -199 76 -199 171c0 133 125 201 268 220l45 135h18l-33 -159l-4 -4c-143 -12 -260 -73 -260 -191c0 -83 65 -141 167 -141c88 0 157 44 205 92l21 -22c-54 -54 -128 -101 -228 -101z" />
    <glyph glyph-name="quotedblleft" unicode="&#x201c;" horiz-adv-x="317" 
d="M273 547l15 57c16 63 39 86 82 98l5 -17c-34 -10 -50 -36 -58 -73h21l-17 -65h-48zM147 547l15 57c16 63 39 86 82 98l5 -17c-34 -10 -50 -36 -58 -73h21l-17 -65h-48z" />
    <glyph glyph-name="quotedblright" unicode="&#x201d;" horiz-adv-x="317" 
d="M266 545l-6 17c34 10 51 36 59 73h-22l18 65h48l-15 -57c-17 -62 -39 -86 -82 -98zM140 545l-6 17c34 10 51 36 59 73h-22l18 65h48l-15 -57c-17 -62 -39 -86 -82 -98z" />
    <glyph glyph-name="quoteleft" unicode="&#x2018;" horiz-adv-x="191" 
d="M147 547l15 57c17 63 39 86 82 98l5 -17c-34 -10 -50 -36 -58 -73h22l-18 -65h-48z" />
    <glyph glyph-name="quoteright" unicode="&#x2019;" horiz-adv-x="191" 
d="M144 545l-5 17c34 10 50 36 58 73h-21l17 65h48l-15 -57c-17 -62 -39 -86 -82 -98z" />
    <glyph glyph-name="quotedblbase" unicode="&#x201e;" horiz-adv-x="317" 
d="M99 -90l-6 17c34 10 51 36 59 73h-22l18 65h48l-15 -57c-17 -62 -39 -86 -82 -98zM-28 -90l-5 17c34 10 50 36 58 73h-21l17 65h48l-15 -57c-17 -62 -39 -86 -82 -98z" />
    <glyph glyph-name="quotesinglbase" unicode="&#x201a;" horiz-adv-x="191" 
d="M-28 -90l-5 17c34 10 50 36 58 73h-21l17 65h48l-15 -57c-17 -62 -39 -86 -82 -98z" />
    <glyph glyph-name="guillemotleft" unicode="&#xab;" horiz-adv-x="483" 
d="M340 45l-113 207l1 6l224 206l22 -17l-208 -197l99 -191zM157 45l-114 207l2 6l223 206l22 -17l-208 -197l100 -191z" />
    <glyph glyph-name="guillemotright" unicode="&#xbb;" horiz-adv-x="483" 
d="M214 45l-22 17l208 196l-99 192l24 13l114 -206l-1 -7zM30 45l-21 17l207 196l-99 192l25 13l113 -206l-1 -7z" />
    <glyph glyph-name="guilsinglleft" unicode="&#x2039;" horiz-adv-x="300" 
d="M157 45l-114 207l2 6l223 206l22 -17l-208 -197l100 -191z" />
    <glyph glyph-name="guilsinglright" unicode="&#x203a;" horiz-adv-x="300" 
d="M30 45l-21 17l207 196l-99 192l25 13l113 -206l-1 -7z" />
    <glyph glyph-name="hyphen" unicode="-" horiz-adv-x="396" 
d="M76 280l10 35h256l-10 -35h-256z" />
    <glyph glyph-name="endash" unicode="&#x2013;" horiz-adv-x="534" 
d="M76 281l9 32h394l-9 -32h-394z" />
    <glyph glyph-name="emdash" unicode="&#x2014;" horiz-adv-x="896" 
d="M76 281l9 32h756l-9 -32h-756z" />
    <glyph glyph-name="underscore" unicode="_" horiz-adv-x="569" 
d="M-112 -153l8 29h574l-8 -29h-574z" />
    <glyph glyph-name="slash" unicode="/" horiz-adv-x="495" 
d="M-107 -128l718 926h36l-718 -926h-36z" />
    <glyph glyph-name="backslash" unicode="\" horiz-adv-x="483" 
d="M375 -128l-221 926h30l221 -926h-30z" />
    <glyph glyph-name="bar" unicode="|" horiz-adv-x="269" 
d="M142 -128v926h29v-926h-29z" />
    <glyph glyph-name="parenleft" unicode="(" horiz-adv-x="406" 
d="M270 -134c-93 76 -177 190 -177 353c0 199 131 400 397 500l11 -26c-256 -99 -374 -288 -374 -473c0 -155 75 -257 162 -333z" />
    <glyph glyph-name="parenright" unicode=")" horiz-adv-x="406" 
d="M-63 -136l-11 26c256 99 374 288 374 473c0 155 -75 257 -162 333l19 21c93 -76 177 -190 177 -353c0 -199 -131 -400 -397 -500z" />
    <glyph glyph-name="bracketleft" unicode="[" horiz-adv-x="418" 
d="M9 -130l223 830h267l-7 -25h-235l-209 -780h235l-7 -25h-267z" />
    <glyph glyph-name="bracketright" unicode="]" horiz-adv-x="418" 
d="M-64 -130l7 25h236l208 780h-235l7 25h267l-223 -830h-267z" />
    <glyph glyph-name="braceleft" unicode="{" horiz-adv-x="456" 
d="M297 -141c-106 26 -151 84 -151 165c0 40 8 71 21 118c8 27 12 48 12 69c0 34 -23 62 -91 62h-28l7 27h29c98 0 139 47 166 181c27 133 72 223 260 233l-2 -27c-163 -10 -202 -90 -225 -210c-27 -137 -68 -181 -150 -192c47 -11 68 -39 68 -75c0 -19 -5 -42 -13 -70
c-11 -36 -21 -77 -21 -114c0 -73 37 -119 128 -143z" />
    <glyph glyph-name="braceright" unicode="}" horiz-adv-x="456" 
d="M-49 -140l2 27c163 10 202 90 225 210c27 137 68 181 150 192c-47 11 -68 39 -68 75c0 19 5 43 13 70c11 36 21 77 21 114c0 73 -37 119 -128 143l10 24c106 -26 151 -84 151 -165c0 -40 -8 -71 -21 -118c-7 -27 -12 -48 -12 -69c0 -34 23 -62 91 -62h28l-7 -27h-29
c-98 0 -139 -47 -166 -181c-27 -133 -72 -223 -260 -233z" />
    <glyph glyph-name="at" unicode="@" horiz-adv-x="961" 
d="M462 -160c-244 0 -393 157 -393 374c0 278 229 498 484 498c232 0 369 -163 369 -345c0 -197 -114 -289 -197 -289s-106 57 -103 113c-37 -61 -102 -114 -187 -114c-92 0 -154 67 -154 162c0 126 103 250 229 250c97 0 143 -61 154 -126l33 108l30 -8l-65 -211
c-28 -89 -7 -149 65 -149c71 0 169 82 169 264c0 170 -128 321 -344 321c-242 0 -457 -209 -457 -473c0 -201 137 -351 368 -351c75 0 150 14 218 47l11 -22c-71 -34 -144 -49 -230 -49zM440 108c113 0 206 117 206 210c0 84 -46 140 -135 140c-114 0 -194 -109 -194 -217
c0 -81 46 -133 123 -133z" />
    <glyph glyph-name="copyright" unicode="&#xa9;" horiz-adv-x="829" 
d="M440 -12c-201 0 -361 162 -361 362c0 199 161 362 362 362s362 -162 362 -362c0 -199 -162 -362 -363 -362zM440 9c190 0 340 154 340 341c0 188 -149 341 -339 341s-340 -154 -340 -341c0 -188 150 -341 339 -341zM446 165c-104 0 -181 84 -181 189s77 191 182 191
c68 0 107 -27 141 -60l-20 -21c-28 28 -66 54 -122 54c-88 0 -151 -73 -151 -163c0 -89 66 -163 152 -163c57 0 92 23 124 56l19 -19c-34 -36 -76 -64 -144 -64z" />
    <glyph glyph-name="published" unicode="&#x2117;" horiz-adv-x="829" 
d="M440 -12c-201 0 -361 162 -361 362c0 199 161 362 362 362s362 -162 362 -362c0 -199 -162 -362 -363 -362zM440 9c190 0 340 154 340 341c0 188 -149 341 -339 341s-340 -154 -340 -341c0 -188 150 -341 339 -341zM329 169v366h135c86 0 141 -41 141 -113
c0 -78 -65 -118 -146 -118h-101v-135h-29zM358 331h102c70 0 116 33 116 89c0 58 -45 88 -113 88h-105v-177z" />
    <glyph glyph-name="registered.alt" horiz-adv-x="829" 
d="M440 -12c-201 0 -361 162 -361 361v2c0 198 161 361 362 361s362 -162 362 -361v-2c0 -198 -162 -361 -363 -361zM440 9c190 0 340 154 340 340v2c0 187 -149 340 -339 340s-340 -154 -340 -340v-2c0 -187 150 -340 339 -340zM307 177v366h157c45 0 83 -13 105 -36
c17 -17 27 -40 27 -67v-2c0 -61 -42 -96 -107 -105l122 -156h-37l-118 152h-120v-152h-29zM336 356h123c65 0 108 30 108 80v2c0 48 -40 78 -105 78h-126v-160z" />
    <glyph glyph-name="registered" unicode="&#xae;" horiz-adv-x="416" 
d="M279 360c-98 0 -174 79 -174 174v1c0 95 77 175 174 175c98 0 174 -79 174 -174v-1c0 -95 -77 -175 -174 -175zM279 377c88 0 156 72 156 158c0 87 -67 158 -156 158c-88 0 -157 -72 -157 -158c0 -87 68 -158 157 -158zM214 450v175h77c36 0 65 -17 65 -52
c0 -29 -21 -46 -45 -53l51 -70h-28l-48 67h-49v-67h-23zM237 536h51c28 0 45 14 45 35c0 22 -17 34 -44 34h-52v-69z" />
    <glyph glyph-name="servicemark" unicode="&#x2120;" horiz-adv-x="692" 
d="M200 387c-53 0 -99 23 -125 59l17 14c27 -34 63 -53 109 -53c54 0 88 32 88 68c0 31 -24 46 -71 64c-53 21 -85 39 -85 80c0 46 44 86 111 86c45 0 83 -19 107 -47l-17 -15c-23 26 -53 42 -93 42c-53 0 -84 -32 -84 -64c0 -31 28 -45 74 -62c50 -19 81 -40 81 -82
c0 -48 -44 -90 -112 -90zM371 392l88 308h20l74 -185l177 185h26l-88 -308h-23l76 266l-176 -181h-2l-73 181l-76 -266h-23z" />
    <glyph glyph-name="trademark" unicode="&#x2122;" horiz-adv-x="670" 
d="M349 392l88 308h20l74 -185l177 185h26l-88 -308h-23l76 266l-176 -181h-2l-73 181l-76 -266h-23zM150 392l82 285h-106l6 23h236l-7 -23h-106l-82 -285h-23z" />
    <glyph glyph-name="asterisk" unicode="*" horiz-adv-x="431" 
d="M268 407l-29 8l42 129l-129 -43l-8 29l134 28l-103 91l23 21l90 -101l28 132l29 -8l-42 -129l129 43l8 -29l-134 -28l103 -91l-23 -21l-90 101z" />
    <glyph glyph-name="dagger" unicode="&#x2020;" horiz-adv-x="397" 
d="M170 238l84 293l-126 -7l8 31l123 -6l35 151h33l-47 -151l127 6l-9 -31l-124 7l-72 -293h-32z" />
    <glyph glyph-name="daggerdbl" unicode="&#x2021;" horiz-adv-x="405" 
d="M110 0l46 151l-126 -6l8 31l123 -7l44 181l53 181l-126 -7l8 31l123 -6l35 151h33l-47 -151l127 6l-9 -31l-124 7l-42 -181l-54 -181l127 7l-9 -31l-122 6l-35 -151h-33z" />
    <glyph glyph-name="dollar" unicode="$" horiz-adv-x="620" 
d="M200 -98l28 103c-88 14 -165 59 -215 119l25 22c50 -61 117 -99 199 -112l84 312c-109 41 -182 82 -182 173c0 94 88 181 233 181c15 0 29 -1 44 -3l16 61h31l-18 -65c70 -14 130 -48 171 -91l-23 -23c-42 43 -94 73 -158 85c0 0 -79 -296 -79 -297
c105 -38 179 -82 179 -178s-86 -189 -244 -189c-11 0 -23 1 -34 1l-26 -99h-31zM329 378l78 290c-12 2 -25 2 -39 2c-122 0 -195 -72 -195 -148c0 -77 60 -109 156 -144zM296 30c134 0 204 79 204 156c0 78 -56 114 -152 150l-83 -305c11 -1 21 -1 31 -1z" />
    <glyph glyph-name="sterling" unicode="&#xa3;" horiz-adv-x="609" 
d="M-6 0l4 18l93 13l76 282h-89l8 32h89l35 129c20 72 49 131 87 169c43 44 95 66 155 66c86 0 146 -47 180 -113l-29 -16c-32 59 -79 98 -154 98c-49 0 -91 -18 -127 -54c-34 -34 -61 -87 -80 -157l-33 -122h300l-8 -32h-301l-75 -282h374l-8 -31h-497z" />
    <glyph glyph-name="Euro" unicode="&#x20ac;" horiz-adv-x="700" 
d="M380 -12c-135 0 -236 101 -238 266h-94l8 31h86c2 48 10 96 23 139h-72l8 32h75c56 146 173 256 323 256c115 0 190 -73 218 -158l-30 -12c-28 77 -90 139 -192 139c-129 0 -232 -95 -283 -225h318l-8 -32h-322c-14 -43 -22 -91 -24 -139h309l-8 -31h-301
c2 -141 83 -235 205 -235c82 0 146 33 209 104l23 -20c-65 -75 -140 -115 -233 -115z" />
    <glyph glyph-name="yen" unicode="&#xa5;" horiz-adv-x="692" 
d="M258 0l32 122h-208l8 30h208l35 129h-208l9 30h192l-172 389h37l169 -383l372 383h44l-380 -389h188l-9 -30h-208l-35 -129h208l-8 -30h-208l-32 -122h-34z" />
    <glyph glyph-name="cent" unicode="&#xa2;" horiz-adv-x="560" 
d="M213 107c-76 30 -133 102 -133 199c0 168 138 312 299 312c12 0 24 -1 35 -2l35 90h32l-38 -96c70 -17 113 -64 137 -112l-27 -15c-25 44 -61 85 -122 99l-180 -456c16 -4 33 -6 51 -6c76 0 133 31 180 75l21 -20c-51 -49 -115 -85 -203 -85c-20 0 -40 3 -59 8l-41 -104
h-32zM403 587c-7 1 -17 1 -26 1c-142 0 -263 -130 -263 -281c0 -85 46 -146 111 -172z" />
    <glyph glyph-name="numbersign" unicode="#" horiz-adv-x="667" 
d="M96 0l68 195h-117l8 31h119l89 254h-129l8 30h131l67 190h31l-66 -190h226l66 190h31l-66 -190h117l-8 -30h-120l-88 -254h129l-8 -31h-132l-68 -195h-31l68 195h-226l-68 -195h-31zM206 226h226l89 254h-227z" />
    <glyph glyph-name="paragraph" unicode="&#xb6;" horiz-adv-x="469" 
d="M262 0l73 271c-145 3 -227 72 -227 185c0 152 123 244 319 244h58l-188 -700h-35z" />
    <glyph glyph-name="section" unicode="&#xa7;" horiz-adv-x="619" 
d="M287 -10c-94 0 -176 40 -219 81l22 24c42 -39 112 -75 201 -75c78 0 133 36 133 88c0 57 -66 87 -155 118c-102 35 -177 70 -177 141c0 72 78 126 208 119c-52 24 -88 58 -88 105c0 71 72 119 170 119c95 0 177 -40 220 -81l-23 -24c-41 39 -112 75 -200 75
c-78 0 -133 -36 -133 -88c0 -57 66 -87 155 -118c101 -35 176 -70 176 -141c0 -72 -77 -126 -207 -119c52 -24 88 -58 88 -105c0 -71 -72 -119 -171 -119zM387 237c100 0 156 45 156 93c0 42 -32 74 -143 112c-41 14 -80 21 -117 21c-100 0 -157 -45 -157 -93
c0 -42 33 -74 144 -112c41 -14 80 -21 117 -21z" />
    <glyph glyph-name="ordfeminine" unicode="&#xaa;" horiz-adv-x="408" 
d="M215 412c-45 0 -87 28 -87 76c0 62 52 101 127 101c38 0 76 -7 107 -16l3 9c2 9 4 21 4 29c0 46 -33 67 -88 67c-30 0 -56 -7 -79 -15l-5 24c25 9 54 16 88 16c67 0 111 -32 111 -88c0 -11 -2 -24 -5 -37l-43 -160h-27l15 58c-26 -36 -65 -64 -121 -64zM76 308l6 25h246
l-6 -25h-246zM221 435c61 0 115 43 131 98l5 19c-31 9 -66 15 -104 15c-59 0 -97 -29 -97 -76c0 -37 29 -56 65 -56z" />
    <glyph glyph-name="ordmasculine" unicode="&#xba;" horiz-adv-x="408" 
d="M259 411c-73 0 -125 53 -125 126c0 86 73 168 167 168c73 0 125 -53 125 -126c0 -86 -73 -168 -167 -168zM77 308l6 25h274l-7 -25h-273zM262 437c74 0 135 68 135 141c0 61 -40 101 -99 101c-75 0 -136 -68 -136 -140c0 -62 41 -102 100 -102z" />
    <glyph glyph-name="degree" unicode="&#xb0;" horiz-adv-x="404" 
d="M233 413c-72 0 -123 54 -123 123c0 88 74 169 163 169c72 0 123 -53 123 -122c0 -89 -73 -170 -163 -170zM235 442c72 0 131 67 131 139c0 56 -39 96 -95 96c-71 0 -130 -67 -130 -139c0 -56 38 -96 94 -96z" />
    <glyph glyph-name="percent" unicode="%" horiz-adv-x="823" 
d="M235 346c-81 0 -135 63 -135 146c0 110 84 216 188 216c80 0 135 -63 135 -146c0 -110 -84 -216 -188 -216zM71 0l692 700h39l-691 -700h-40zM586 -8c-81 0 -136 64 -136 146c0 110 84 216 188 216c81 0 136 -63 136 -146c0 -109 -84 -216 -188 -216zM237 375
c85 0 153 93 153 184c0 69 -40 120 -105 120c-85 0 -153 -93 -153 -184c0 -69 41 -120 105 -120zM588 22c85 0 153 93 153 184c0 69 -40 119 -105 119c-85 0 -153 -93 -153 -184c0 -69 40 -119 105 -119z" />
    <glyph glyph-name="perthousand" unicode="&#x2030;" horiz-adv-x="1206" 
d="M235 346c-81 0 -135 63 -135 146c0 110 84 216 188 216c80 0 135 -63 135 -146c0 -110 -84 -216 -188 -216zM71 0l692 700h39l-691 -700h-40zM969 -8c-81 0 -135 64 -135 146c0 110 84 216 188 216c80 0 135 -63 135 -146c0 -109 -84 -216 -188 -216zM586 -8
c-81 0 -136 64 -136 146c0 110 84 216 188 216c81 0 136 -63 136 -146c0 -109 -84 -216 -188 -216zM237 375c85 0 153 93 153 184c0 69 -40 120 -105 120c-85 0 -153 -93 -153 -184c0 -69 41 -120 105 -120zM971 22c85 0 153 93 153 184c0 69 -40 119 -105 119
c-85 0 -153 -93 -153 -184c0 -69 41 -119 105 -119zM588 22c85 0 153 93 153 184c0 69 -40 119 -105 119c-85 0 -153 -93 -153 -184c0 -69 40 -119 105 -119z" />
    <glyph glyph-name="quotedbl" unicode="&#x22;" horiz-adv-x="346" 
d="M245 446l99 254h40v-3l-120 -251h-19zM96 446l99 254h40v-3l-120 -251h-19z" />
    <glyph glyph-name="quotesingle" unicode="'" horiz-adv-x="198" 
d="M96 446l99 254h40v-3l-120 -251h-19z" />
    <glyph glyph-name="plus" unicode="+" horiz-adv-x="608" 
d="M249 113l61 224h-218l8 30h218l60 224h32l-60 -224h218l-8 -30h-218l-61 -224h-32z" />
    <glyph glyph-name="minus" unicode="&#x2212;" horiz-adv-x="608" 
d="M561 337h-469l8 30h469z" />
    <glyph glyph-name="divide" unicode="&#xf7;" horiz-adv-x="608" 
d="M349 522l18 67h54l-18 -67h-54zM561 337h-469l8 30h469zM240 115l18 67h54l-18 -67h-54z" />
    <glyph glyph-name="equal" unicode="=" horiz-adv-x="608" 
d="M142 452l8 32h430l-8 -32h-430zM79 221l9 32h430l-9 -32h-430z" />
    <glyph glyph-name="multiply" unicode="&#xd7;" horiz-adv-x="608" 
d="M461 143l-135 188l-239 -189l-18 24l239 189l-138 186l27 21l136 -188l239 189l18 -25l-239 -188l137 -187z" />
    <glyph glyph-name="less" unicode="&#x3c;" horiz-adv-x="608" 
d="M481 104l-398 237l6 22l525 237l-10 -38l-475 -213l361 -213z" />
    <glyph glyph-name="greater" unicode="&#x3e;" horiz-adv-x="608" 
d="M45 104l10 38l475 213l-361 213l9 32l398 -237l-6 -22z" />
    <glyph glyph-name="plusminus" unicode="&#xb1;" horiz-adv-x="608" 
d="M565 367h-214l-57 -209h-32l57 209h-214l7 30h215l55 209h32l-55 -209h214zM467 0h-460l8 30h459z" />
    <glyph glyph-name="space" unicode=" " horiz-adv-x="288" 
 />
    <glyph glyph-name="uni00A0" unicode="&#xa0;" horiz-adv-x="288" 
 />
    <glyph glyph-name="emspace" unicode="&#x2003;" horiz-adv-x="1000" 
 />
    <glyph glyph-name="enspace" unicode="&#x2002;" 
 />
    <glyph glyph-name="threeperemspace" unicode="&#x2004;" horiz-adv-x="333" 
 />
    <glyph glyph-name="fourperemspace" unicode="&#x2005;" horiz-adv-x="250" 
 />
    <glyph glyph-name="thinspace" unicode="&#x2009;" horiz-adv-x="133" 
 />
    <glyph glyph-name="hairspace" unicode="&#x200a;" horiz-adv-x="75" 
 />
    <glyph glyph-name="florin" unicode="&#x192;" horiz-adv-x="480" 
d="M13 -6c-23 0 -33 2 -47 5l8 29c11 -3 21 -5 41 -5c48 0 86 28 123 113l113 258h-109l7 30h115l61 140c48 108 105 142 172 142c25 0 44 -4 67 -11l-10 -29c-19 7 -39 10 -59 10c-53 0 -100 -26 -142 -123l-56 -129h159l-8 -30h-164l-117 -266
c-46 -105 -93 -134 -154 -134z" />
    <glyph glyph-name="asciicircum" unicode="^" 
d="M143 494l213 209h25l101 -209h-28l-91 176l-185 -176h-35z" />
    <glyph glyph-name="asciitilde" unicode="~" horiz-adv-x="448" 
d="M110 250l-22 9c27 61 55 89 92 89c25 0 45 -17 65 -37c19 -19 34 -31 51 -31c23 0 42 18 66 65l22 -9c-26 -62 -55 -89 -92 -89c-25 0 -45 17 -65 36c-19 20 -34 32 -51 32c-23 0 -42 -19 -66 -65z" />
    <glyph glyph-name="fraction" unicode="&#x2044;" horiz-adv-x="474" 
d="M-111 -98l699 857h37l-699 -857h-37z" />
    <glyph glyph-name="NUL" horiz-adv-x="0" 
 />
    <glyph glyph-name="hfjslug" horiz-adv-x="694" 
d="M644 -200h-208l-8 14h-163l-8 -14h-207v303c18 0 32 14 32 32c0 17 -14 32 -32 32v554h100l30 79h334l29 -79h101v-921zM400 563v-172h15v78h38v14h-38v66h43v14h-58zM184 563v-172h15v79h47v-79h15v172h-15v-79h-47v79h-15zM460 394c5 -2 14 -4 21 -4c20 0 31 11 31 36
v137h-16v-137c0 -16 -5 -22 -16 -22c-6 0 -15 3 -20 5v-15zM371 465l-13 3c-2 -9 -5 -21 -8 -30h-1l-16 31c13 12 23 26 23 42c0 17 -9 31 -27 31c-17 0 -28 -14 -28 -31c0 -15 6 -24 14 -39c-15 -12 -23 -28 -23 -47c0 -22 12 -37 29 -37c13 0 23 9 29 24h1l12 -24l12 6
l-17 32c5 12 9 25 13 39zM523 323v-46h8v12l8 8l15 -20h10l-20 26l18 20h-10l-20 -24h-1v24h-8zM488 292l10 -15h9l-12 17c5 2 10 6 10 14c0 9 -7 15 -17 15h-20v-46h8v15h12zM426 276c14 0 24 11 24 24c0 12 -10 24 -24 24s-24 -12 -24 -24c0 -13 10 -24 24 -24zM370 301
l-13 22h-9l18 -29v-17h8v17l18 29h-9zM193 323v-46h34v7h-26v13h23v7h-23v12h26v7h-34zM132 323v-46h8v32l25 -32h7v46h-8v-32l-25 32h-7zM241 323l14 -47h8l11 34h1l11 -34h8l14 47h-8l-10 -35h-1l-11 35h-7l-11 -35h-1l-10 35h-8zM327 479c-7 13 -12 22 -12 32
c0 11 6 19 14 19s13 -8 13 -19c0 -12 -5 -21 -15 -32zM342 423c-5 -13 -12 -21 -20 -21c-9 0 -16 10 -16 25c0 13 7 26 16 35zM487 299h-11v17h11c6 0 10 -3 10 -8s-4 -9 -10 -9zM426 283c-10 0 -16 8 -16 17c0 8 6 17 16 17s16 -9 16 -17c0 -9 -6 -17 -16 -17z" />
    <glyph glyph-name="i.dot" horiz-adv-x="232" 
d="M198 643l17 61h43l-17 -61h-43zM31 0l136 504h32l-135 -504h-33z" />
    <glyph glyph-name="acute" unicode="&#xb4;" 
d="M261 595l119 121l40 -19l-129 -102h-30z" />
    <glyph glyph-name="hungarumlaut" unicode="&#x2dd;" 
d="M342 595l119 121l33 -19l-126 -102h-26zM208 595l119 121l33 -19l-126 -102h-26z" />
    <glyph glyph-name="caron.alt" 
d="M311 581l56 149h39v-2l-76 -147h-19z" />
    <glyph glyph-name="grave" unicode="`" 
d="M376 595l-73 102l40 19l55 -121h-22z" />
    <glyph glyph-name="circumflex" unicode="&#x2c6;" 
d="M227 595l135 116h23l72 -116h-26l-64 79l-109 -79h-31z" />
    <glyph glyph-name="caron" unicode="&#x2c7;" 
d="M487 711l-136 -116h-23l-72 116h27l63 -79l110 79h31z" />
    <glyph glyph-name="breve" unicode="&#x2d8;" 
d="M342 594c-73 0 -112 41 -102 104h24c-1 -45 22 -74 83 -74c62 0 98 31 122 74h27c-24 -62 -78 -104 -154 -104z" />
    <glyph glyph-name="tilde" unicode="&#x2dc;" 
d="M226 595l-22 5c26 64 54 86 89 86c41 0 88 -52 123 -52c24 0 41 14 64 58l21 -5c-26 -64 -54 -85 -89 -85c-41 0 -87 51 -122 51c-24 0 -42 -13 -64 -58z" />
    <glyph glyph-name="macron" unicode="&#xaf;" 
d="M209 621l8 30h278l-8 -30h-278z" />
    <glyph glyph-name="dieresis" unicode="&#xa8;" 
d="M386 606l17 62h49l-17 -62h-49zM243 606l17 62h49l-17 -62h-49z" />
    <glyph glyph-name="dotaccent" unicode="&#x2d9;" 
d="M320 606l17 64h48l-17 -64h-48z" />
    <glyph glyph-name="ring" unicode="&#x2da;" 
d="M358 594c-55 0 -93 37 -93 87c0 58 54 104 110 104c55 0 93 -37 93 -87c0 -58 -54 -104 -110 -104zM359 616c43 0 84 35 84 81c0 38 -26 66 -69 66s-84 -36 -84 -81c0 -38 26 -66 69 -66z" />
    <glyph glyph-name="acute.cap" 
d="M333 765l125 107l38 -19l-130 -88h-33z" />
    <glyph glyph-name="hungarumlaut.cap" 
d="M252 765l125 107l37 -19l-129 -88h-33zM380 765l126 107l37 -19l-129 -88h-34z" />
    <glyph glyph-name="grave.cap" 
d="M366 872l68 -107h-24l-81 88z" />
    <glyph glyph-name="circumflex.cap" 
d="M267 765l132 101h29l78 -101h-31l-67 69l-105 -69h-36z" />
    <glyph glyph-name="caron.cap" 
d="M533 866l-131 -101h-29l-79 101h32l67 -69l104 69h36z" />
    <glyph glyph-name="breve.cap" 
d="M387 764c-76 0 -113 37 -106 90h27c1 -35 21 -59 83 -59c61 0 98 25 118 59h29c-22 -53 -76 -90 -151 -90z" />
    <glyph glyph-name="tilde.cap" 
d="M269 765l-22 6c25 57 55 79 89 79c41 0 86 -46 121 -46c24 0 42 13 64 53l21 -6c-24 -57 -54 -79 -88 -79c-41 0 -87 46 -121 46c-24 0 -42 -13 -64 -53z" />
    <glyph glyph-name="macron.cap" 
d="M250 791l9 32h287l-8 -32h-288z" />
    <glyph glyph-name="dieresis.cap" 
d="M441 776l16 61h52l-16 -61h-52zM286 776l16 61h53l-16 -61h-53z" />
    <glyph glyph-name="dotaccent.cap" 
d="M363 776l16 61h53l-16 -61h-53z" />
    <glyph glyph-name="ring.cap" 
d="M398 764c-58 0 -93 34 -93 80c0 59 58 101 117 101c58 0 94 -34 94 -80c0 -59 -58 -101 -118 -101zM401 786c44 0 88 32 88 77c0 34 -25 60 -70 60c-43 0 -87 -32 -87 -78c0 -34 26 -59 69 -59z" />
    <glyph glyph-name="commaaccent" unicode="&#x326;" 
d="M96 -199l-2 17c28 8 43 23 51 51h-24l16 57h50l-11 -40c-15 -56 -37 -76 -80 -85z" />
    <glyph glyph-name="cedilla" unicode="&#xb8;" 
d="M110 -144l-32 18l124 133h26z" />
    <glyph glyph-name="ogonek" unicode="&#x2db;" 
d="M113 -99c0 40 39 75 96 110l22 -10c-55 -36 -83 -66 -83 -95c0 -25 22 -39 70 -43l-6 -24c-64 2 -99 25 -99 62z" />
    </font>
</defs>
</svg>
